<svg width="119" height="30" viewBox="0 0 119 30" fill="none" xmlns="http://www.w3.org/2000/svg">
<path d="M7.21615 0.217286V16.0357H4.08041V0.217286H7.21615ZM11.117 0.217286V2.85732H0.255026V0.217286H11.117Z" fill="url(#paint0_linear_266_7045)"/>
<path d="M24.7741 6.89884V9.53887C24.7741 10.6543 24.6376 11.6321 24.3646 12.4722C24.0988 13.3052 23.7181 14.0041 23.2224 14.569C22.7339 15.1268 22.1413 15.5468 21.4444 15.8293C20.7548 16.1118 19.9897 16.253 19.1492 16.253C18.3087 16.253 17.54 16.1118 16.8432 15.8293C16.1535 15.5468 15.5573 15.1268 15.0544 14.569C14.5587 14.0041 14.1744 13.3052 13.9014 12.4722C13.6284 11.6321 13.4919 10.6543 13.4919 9.53887V6.89884C13.4919 5.75447 13.6248 4.75495 13.8906 3.90029C14.1564 3.03839 14.5408 2.32134 15.0436 1.74916C15.5465 1.16972 16.1428 0.735152 16.8324 0.445437C17.5221 0.148479 18.2871 0 19.1276 0C19.9682 0 20.7332 0.148479 21.4229 0.445437C22.1125 0.735152 22.7088 1.16972 23.2116 1.74916C23.7145 2.32134 24.0988 3.03839 24.3646 3.90029C24.6376 4.75495 24.7741 5.75447 24.7741 6.89884ZM21.6384 9.53887V6.87711C21.6384 6.12385 21.5845 5.48286 21.4768 4.95413C21.369 4.41816 21.2074 3.97996 20.9918 3.63955C20.7763 3.29913 20.5141 3.04925 20.2052 2.88991C19.8963 2.73057 19.5371 2.65089 19.1276 2.65089C18.7182 2.65089 18.3554 2.73057 18.0393 2.88991C17.7304 3.04925 17.4682 3.29913 17.2527 3.63955C17.0443 3.97996 16.8863 4.41816 16.7785 4.95413C16.678 5.48286 16.6277 6.12385 16.6277 6.87711V9.53887C16.6277 10.2632 16.6816 10.8824 16.7893 11.3967C16.8971 11.9109 17.0587 12.331 17.2742 12.6569C17.4897 12.9829 17.7519 13.2255 18.0608 13.3848C18.3769 13.5369 18.7397 13.613 19.1492 13.613C19.5515 13.613 19.9071 13.5369 20.216 13.3848C20.5321 13.2255 20.7943 12.9829 21.0026 12.6569C21.211 12.331 21.369 11.9109 21.4768 11.3967C21.5845 10.8824 21.6384 10.2632 21.6384 9.53887Z" fill="url(#paint1_linear_266_7045)"/>
<path d="M33.5176 10.4623H30.3064V7.82231H33.5068C33.9665 7.82231 34.3365 7.72091 34.6167 7.51811C34.8969 7.31531 35.1016 7.03646 35.2309 6.68155C35.3602 6.31941 35.4249 5.91381 35.4249 5.46475C35.4249 5.00845 35.3602 4.58112 35.2309 4.18276C35.1016 3.7844 34.8969 3.46572 34.6167 3.2267C34.3365 2.98044 33.9701 2.85732 33.5176 2.85732H31.3193V16.0357H28.1728V0.217286H33.5176C34.5736 0.217286 35.4823 0.441816 36.2438 0.890874C37.0053 1.33993 37.5872 1.9592 37.9895 2.74867C38.399 3.5309 38.6037 4.42902 38.6037 5.44302C38.6037 6.45703 38.399 7.34066 37.9895 8.09392C37.58 8.84718 36.9945 9.43023 36.233 9.84307C35.4787 10.2559 34.5736 10.4623 33.5176 10.4623Z" fill="url(#paint2_linear_266_7045)"/>
<path d="M50.498 8.86528L48.0842 8.25688L48.8708 0.217286H56.4462V2.82472H51.3492L51.0583 6.22525C51.2235 6.10937 51.4678 5.98262 51.791 5.845C52.1215 5.70739 52.4879 5.63858 52.8902 5.63858C53.5439 5.63858 54.1186 5.75809 54.6143 5.9971C55.1171 6.23612 55.541 6.58378 55.8858 7.04008C56.2306 7.49638 56.4929 8.05408 56.6724 8.71318C56.852 9.37228 56.9418 10.1183 56.9418 10.9512C56.9418 11.6538 56.8485 12.3238 56.6617 12.9611C56.4749 13.5985 56.1875 14.1634 55.7996 14.656C55.4117 15.1485 54.9304 15.5396 54.3557 15.8293C53.7881 16.1118 53.1165 16.253 52.3406 16.253C51.7659 16.253 51.2056 16.1516 50.6596 15.9488C50.1208 15.746 49.6359 15.4454 49.2049 15.0471C48.7738 14.6415 48.429 14.1562 48.1704 13.5913C47.9118 13.0191 47.7825 12.3672 47.7825 11.6357H50.7673C50.8033 12.063 50.8895 12.4324 51.026 12.7438C51.1625 13.0553 51.3385 13.2979 51.554 13.4718C51.7767 13.6383 52.0353 13.7216 52.3298 13.7216C52.6172 13.7216 52.865 13.6492 53.0734 13.5043C53.2817 13.3522 53.4469 13.1422 53.569 12.8742C53.6912 12.6062 53.781 12.2948 53.8384 11.9399C53.8959 11.585 53.9246 11.1975 53.9246 10.7774C53.9246 10.3646 53.8851 9.98793 53.8061 9.64751C53.7343 9.29986 53.6193 9.00652 53.4613 8.7675C53.3104 8.52125 53.1165 8.33293 52.8794 8.20256C52.6495 8.06494 52.3729 7.99614 52.0497 7.99614C51.6043 7.99614 51.2702 8.09029 51.0475 8.27861C50.832 8.45968 50.6488 8.65524 50.498 8.86528Z" fill="url(#paint3_linear_266_7045)"/>
<path d="M69.1335 6.73588V9.48455C69.1335 10.6724 69.0222 11.6936 68.7995 12.5483C68.5768 13.4029 68.2643 14.1055 67.862 14.656C67.4597 15.1992 66.9819 15.6012 66.4288 15.8619C65.8756 16.1226 65.265 16.253 64.5969 16.253C64.0653 16.253 63.566 16.1697 63.0991 16.0031C62.6321 15.8366 62.2083 15.5831 61.8276 15.2426C61.454 14.895 61.1307 14.4568 60.8577 13.9281C60.5919 13.3921 60.3872 12.7583 60.2435 12.0268C60.0998 11.288 60.028 10.4406 60.028 9.48455V6.73588C60.028 5.54804 60.1394 4.53042 60.3621 3.683C60.5919 2.82834 60.908 2.12941 61.3103 1.58619C61.7126 1.04297 62.1903 0.644616 62.7435 0.391115C63.3038 0.130372 63.9181 0 64.5861 0C65.1106 0 65.6062 0.0832931 66.0732 0.249879C66.5401 0.409223 66.9604 0.659102 67.334 0.999517C67.7075 1.33993 68.0272 1.77813 68.293 2.3141C68.566 2.84283 68.7743 3.47658 68.918 4.21535C69.0617 4.94689 69.1335 5.78706 69.1335 6.73588ZM66.1055 9.90826V6.29044C66.1055 5.73274 66.0804 5.24384 66.0301 4.82376C65.987 4.40367 65.9259 4.04877 65.8469 3.75905C65.7679 3.46934 65.6637 3.23395 65.5344 3.05287C65.4051 2.8718 65.2614 2.74143 65.1034 2.66176C64.9453 2.57484 64.7729 2.53139 64.5861 2.53139C64.3491 2.53139 64.1372 2.59657 63.9504 2.72694C63.7636 2.85732 63.602 3.07098 63.4655 3.36794C63.329 3.65765 63.2248 4.04515 63.153 4.53042C63.0883 5.00845 63.056 5.59512 63.056 6.29044V9.90826C63.056 10.466 63.0775 10.9585 63.1206 11.3858C63.1709 11.8131 63.2392 12.1789 63.3254 12.4831C63.4188 12.7801 63.5229 13.0191 63.6379 13.2001C63.76 13.3812 63.9001 13.5152 64.0581 13.6021C64.2234 13.6818 64.403 13.7216 64.5969 13.7216C64.8268 13.7216 65.0351 13.6564 65.2219 13.5261C65.4159 13.3885 65.5775 13.1712 65.7068 12.8742C65.8361 12.5773 65.9331 12.1861 65.9978 11.7009C66.0696 11.2084 66.1055 10.6108 66.1055 9.90826Z" fill="url(#paint4_linear_266_7045)"/>
<path d="M1.95041 25.7231V29.9421H1.52656V25.7231H1.95041ZM3.48056 25.7231V26.0997H0V25.7231H3.48056Z" fill="url(#paint5_linear_266_7045)"/>
<path d="M7.59114 27.6714V28.0444H4.88644V27.6714H7.59114ZM4.99419 25.7231V29.9421H4.56676V25.7231H4.99419ZM7.92519 25.7231V29.9421H7.49775V25.7231H7.92519Z" fill="url(#paint6_linear_266_7045)"/>
<path d="M12.2226 29.569V29.9421H9.70103V29.569H12.2226ZM9.83753 25.7231V29.9421H9.41009V25.7231H9.83753ZM11.9101 27.57V27.9394H9.70103V27.57H11.9101ZM12.2118 25.7231V26.0997H9.70103V25.7231H12.2118Z" fill="url(#paint7_linear_266_7045)"/>
<path d="M18.2275 25.7231H18.6585V28.5659C18.6585 28.8822 18.5867 29.1478 18.443 29.3626C18.3017 29.5751 18.1102 29.7344 17.8683 29.8407C17.6289 29.9469 17.3607 30 17.0637 30C16.7596 30 16.4866 29.9469 16.2448 29.8407C16.0053 29.7344 15.8161 29.5751 15.6773 29.3626C15.5384 29.1478 15.4689 28.8822 15.4689 28.5659V25.7231H15.8928V28.5659C15.8928 28.8025 15.9431 29.0005 16.0436 29.1598C16.1442 29.3168 16.2819 29.4351 16.4567 29.5147C16.6339 29.592 16.8362 29.6306 17.0637 29.6306C17.2912 29.6306 17.4924 29.592 17.6672 29.5147C17.842 29.4351 17.9785 29.3168 18.0767 29.1598C18.1772 29.0005 18.2275 28.8025 18.2275 28.5659V25.7231Z" fill="url(#paint8_linear_266_7045)"/>
<path d="M22.6901 29.569V29.9421H20.3589V29.569H22.6901ZM20.4954 25.7231V29.9421H20.068V25.7231H20.4954Z" fill="url(#paint9_linear_266_7045)"/>
<path d="M25.0766 25.7231V29.9421H24.6527V25.7231H25.0766ZM26.6067 25.7231V26.0997H23.1262V25.7231H26.6067Z" fill="url(#paint10_linear_266_7045)"/>
<path d="M28.203 25.7231V29.9421H27.7755V25.7231H28.203Z" fill="url(#paint11_linear_266_7045)"/>
<path d="M29.907 25.7231H30.3236L31.94 29.3337L33.5599 25.7231H33.9766L32.1016 29.9421H31.7819L29.907 25.7231ZM29.7633 25.7231H30.1369L30.1871 28.2183V29.9421H29.7633V25.7231ZM33.7503 25.7231H34.1275V29.9421H33.7V28.2183L33.7503 25.7231Z" fill="url(#paint12_linear_266_7045)"/>
<path d="M37.0527 26.2265L35.5872 29.9421H35.1418L36.8444 25.7231H37.1497L37.0527 26.2265ZM38.5038 29.9421L37.0419 26.2192L36.9485 25.7231H37.2539L38.9456 29.9421H38.5038ZM38.2237 28.4464V28.8158H35.8566V28.4464H38.2237Z" fill="url(#paint13_linear_266_7045)"/>
<path d="M41.2818 25.7231V29.9421H40.858V25.7231H41.2818ZM42.812 25.7231V26.0997H39.3314V25.7231H42.812Z" fill="url(#paint14_linear_266_7045)"/>
<path d="M46.7106 29.569V29.9421H44.1891V29.569H46.7106ZM44.3256 25.7231V29.9421H43.8982V25.7231H44.3256ZM46.3981 27.57V27.9394H44.1891V27.57H46.3981ZM46.6999 25.7231V26.0997H44.1891V25.7231H46.6999Z" fill="url(#paint15_linear_266_7045)"/>
<path d="M52.8054 28.613H53.2328C53.2041 28.8979 53.1203 29.1441 52.9814 29.3518C52.8449 29.5594 52.6581 29.7199 52.4211 29.8334C52.184 29.9445 51.899 30 51.5662 30C51.3052 30 51.0705 29.9553 50.8622 29.866C50.6538 29.7743 50.4742 29.6439 50.3234 29.4749C50.1749 29.3059 50.06 29.1043 49.9786 28.8701C49.8995 28.6335 49.86 28.3704 49.86 28.0806V27.5881C49.86 27.2984 49.8995 27.0365 49.9786 26.8023C50.06 26.5657 50.1761 26.3629 50.327 26.1939C50.4778 26.0225 50.6586 25.8921 50.8694 25.8028C51.0825 25.711 51.3207 25.6651 51.5841 25.6651C51.9122 25.6651 52.1924 25.7207 52.4247 25.8317C52.6593 25.9428 52.8449 26.1033 52.9814 26.3134C53.1203 26.5234 53.2041 26.7733 53.2328 27.063H52.8054C52.7767 26.8433 52.7144 26.6574 52.6186 26.5053C52.5252 26.3532 52.3935 26.2373 52.2235 26.1577C52.0535 26.078 51.8404 26.0381 51.5841 26.0381C51.3806 26.0381 51.1986 26.0744 51.0382 26.1468C50.8777 26.2168 50.7412 26.3206 50.6287 26.4582C50.5162 26.5934 50.4299 26.7564 50.3701 26.9471C50.3126 27.1354 50.2839 27.3479 50.2839 27.5845V28.0806C50.2839 28.31 50.3114 28.52 50.3665 28.7108C50.424 28.8991 50.5066 29.0633 50.6143 29.2033C50.7245 29.3409 50.8586 29.4471 51.0166 29.522C51.1771 29.5944 51.3603 29.6306 51.5662 29.6306C51.8248 29.6306 52.0391 29.5932 52.2091 29.5183C52.3816 29.4435 52.5157 29.33 52.6114 29.1779C52.7096 29.0258 52.7743 28.8375 52.8054 28.613Z" fill="url(#paint16_linear_266_7045)"/>
<path d="M55.939 26.2265L54.4735 29.9421H54.0281L55.7306 25.7231H56.036L55.939 26.2265ZM57.3901 29.9421L55.9282 26.2192L55.8348 25.7231H56.1401L57.8319 29.9421H57.3901ZM57.1099 28.4464V28.8158H54.7429V28.4464H57.1099Z" fill="url(#paint17_linear_266_7045)"/>
<path d="M61.375 28.8955C61.375 28.7868 61.3546 28.689 61.3139 28.6021C61.2756 28.5152 61.2121 28.4367 61.1235 28.3667C61.0349 28.2967 60.9152 28.2327 60.7644 28.1748C60.6135 28.1144 60.4267 28.0577 60.204 28.0046C59.9741 27.9466 59.7658 27.8815 59.579 27.809C59.3946 27.7366 59.2366 27.6533 59.1049 27.5592C58.9756 27.4626 58.8762 27.3503 58.8068 27.2224C58.7373 27.092 58.7026 26.9411 58.7026 26.7697C58.7026 26.6031 58.7397 26.4522 58.8139 26.317C58.8882 26.1818 58.9935 26.0659 59.13 25.9693C59.2665 25.8704 59.427 25.7955 59.6114 25.7448C59.7981 25.6917 60.0029 25.6651 60.2256 25.6651C60.5417 25.6651 60.8158 25.7207 61.0481 25.8317C61.2804 25.9428 61.46 26.0949 61.5869 26.288C61.7138 26.4788 61.7773 26.6936 61.7773 26.9326H61.3498C61.3498 26.7612 61.3055 26.6079 61.2169 26.4727C61.1283 26.3375 61.0002 26.2313 60.8326 26.154C60.6674 26.0768 60.4638 26.0381 60.222 26.0381C59.9849 26.0381 59.785 26.0707 59.6221 26.1359C59.4593 26.2011 59.336 26.2892 59.2522 26.4003C59.1707 26.5089 59.13 26.6296 59.13 26.7624C59.13 26.859 59.1492 26.9483 59.1875 27.0304C59.2282 27.1101 59.2941 27.1837 59.3851 27.2513C59.4785 27.3189 59.6018 27.3829 59.755 27.4433C59.9107 27.5036 60.1022 27.5616 60.3297 27.6171C60.5572 27.6726 60.762 27.7378 60.944 27.8127C61.1259 27.8875 61.2804 27.9756 61.4073 28.077C61.5366 28.176 61.6348 28.2931 61.7018 28.4283C61.7713 28.5611 61.806 28.7144 61.806 28.8882C61.806 29.062 61.7677 29.2178 61.6911 29.3554C61.6144 29.493 61.5055 29.6101 61.3642 29.7067C61.2253 29.8008 61.0601 29.8733 60.8685 29.924C60.6793 29.9747 60.4734 30 60.2507 30C60.0496 30 59.8484 29.9759 59.6473 29.9276C59.4485 29.8793 59.2665 29.8032 59.1013 29.6994C58.9361 29.5956 58.8044 29.4628 58.7062 29.3011C58.608 29.1369 58.5589 28.9413 58.5589 28.7144H58.9864C58.9864 28.8858 59.0223 29.0307 59.0941 29.149C59.1683 29.2648 59.2665 29.359 59.3887 29.4314C59.5132 29.5014 59.6497 29.5534 59.7981 29.5872C59.9466 29.6185 60.0975 29.6342 60.2507 29.6342C60.4806 29.6342 60.6793 29.6028 60.847 29.5401C61.0146 29.4773 61.1439 29.3904 61.2349 29.2793C61.3283 29.1683 61.375 29.0403 61.375 28.8955Z" fill="url(#paint18_linear_266_7045)"/>
<path d="M65.7909 29.569V29.9421H63.2694V29.569H65.7909ZM63.4058 25.7231V29.9421H62.9784V25.7231H63.4058ZM65.4784 27.57V27.9394H63.2694V27.57H65.4784ZM65.7801 25.7231V26.0997H63.2694V25.7231H65.7801Z" fill="url(#paint19_linear_266_7045)"/>
<path d="M71.6306 28.8955C71.6306 28.7868 71.6102 28.689 71.5695 28.6021C71.5312 28.5152 71.4678 28.4367 71.3792 28.3667C71.2906 28.2967 71.1708 28.2327 71.02 28.1748C70.8691 28.1144 70.6823 28.0577 70.4596 28.0046C70.2298 27.9466 70.0214 27.8815 69.8346 27.809C69.6503 27.7366 69.4922 27.6533 69.3605 27.5592C69.2312 27.4626 69.1318 27.3503 69.0624 27.2224C68.9929 27.092 68.9582 26.9411 68.9582 26.7697C68.9582 26.6031 68.9953 26.4522 69.0696 26.317C69.1438 26.1818 69.2492 26.0659 69.3857 25.9693C69.5221 25.8704 69.6826 25.7955 69.867 25.7448C70.0537 25.6917 70.2585 25.6651 70.4812 25.6651C70.7973 25.6651 71.0715 25.7207 71.3037 25.8317C71.536 25.9428 71.7156 26.0949 71.8425 26.288C71.9694 26.4788 72.0329 26.6936 72.0329 26.9326H71.6055C71.6055 26.7612 71.5612 26.6079 71.4726 26.4727C71.384 26.3375 71.2558 26.2313 71.0882 26.154C70.923 26.0768 70.7195 26.0381 70.4776 26.0381C70.2405 26.0381 70.0406 26.0707 69.8777 26.1359C69.7149 26.2011 69.5916 26.2892 69.5078 26.4003C69.4264 26.5089 69.3857 26.6296 69.3857 26.7624C69.3857 26.859 69.4048 26.9483 69.4431 27.0304C69.4838 27.1101 69.5497 27.1837 69.6407 27.2513C69.7341 27.3189 69.8574 27.3829 70.0107 27.4433C70.1663 27.5036 70.3579 27.5616 70.5854 27.6171C70.8128 27.6726 71.0176 27.7378 71.1996 27.8127C71.3816 27.8875 71.536 27.9756 71.6629 28.077C71.7922 28.176 71.8904 28.2931 71.9575 28.4283C72.0269 28.5611 72.0616 28.7144 72.0616 28.8882C72.0616 29.062 72.0233 29.2178 71.9467 29.3554C71.8701 29.493 71.7611 29.6101 71.6198 29.7067C71.4809 29.8008 71.3157 29.8733 71.1241 29.924C70.935 29.9747 70.729 30 70.5063 30C70.3052 30 70.104 29.9759 69.9029 29.9276C69.7041 29.8793 69.5221 29.8032 69.3569 29.6994C69.1917 29.5956 69.06 29.4628 68.9618 29.3011C68.8636 29.1369 68.8145 28.9413 68.8145 28.7144H69.242C69.242 28.8858 69.2779 29.0307 69.3497 29.149C69.424 29.2648 69.5221 29.359 69.6443 29.4314C69.7688 29.5014 69.9053 29.5534 70.0537 29.5872C70.2022 29.6185 70.3531 29.6342 70.5063 29.6342C70.7362 29.6342 70.935 29.6028 71.1026 29.5401C71.2702 29.4773 71.3995 29.3904 71.4905 29.2793C71.5839 29.1683 71.6306 29.0403 71.6306 28.8955Z" fill="url(#paint20_linear_266_7045)"/>
<path d="M74.7857 25.7231V29.9421H74.3619V25.7231H74.7857ZM76.3159 25.7231V26.0997H72.8353V25.7231H76.3159Z" fill="url(#paint21_linear_266_7045)"/>
<path d="M80.096 25.7231H80.527V28.5659C80.527 28.8822 80.4552 29.1478 80.3115 29.3626C80.1702 29.5751 79.9787 29.7344 79.7368 29.8407C79.4974 29.9469 79.2292 30 78.9322 30C78.6281 30 78.3551 29.9469 78.1133 29.8407C77.8738 29.7344 77.6846 29.5751 77.5458 29.3626C77.4069 29.1478 77.3374 28.8822 77.3374 28.5659V25.7231H77.7613V28.5659C77.7613 28.8025 77.8116 29.0005 77.9121 29.1598C78.0127 29.3168 78.1504 29.4351 78.3252 29.5147C78.5024 29.592 78.7048 29.6306 78.9322 29.6306C79.1597 29.6306 79.3609 29.592 79.5357 29.5147C79.7105 29.4351 79.847 29.3168 79.9452 29.1598C80.0457 29.0005 80.096 28.8025 80.096 28.5659V25.7231Z" fill="url(#paint22_linear_266_7045)"/>
<path d="M83.1829 29.9421H82.1628L82.1664 29.569H83.1829C83.499 29.569 83.7708 29.5051 83.9983 29.3771C84.2258 29.2467 84.4006 29.0645 84.5227 28.8303C84.6472 28.5961 84.7095 28.3233 84.7095 28.0118V27.6497C84.7095 27.4107 84.6735 27.1958 84.6017 27.0051C84.5323 26.8143 84.4317 26.6514 84.3 26.5162C84.1683 26.381 84.0102 26.2784 83.8259 26.2084C83.6415 26.1359 83.4343 26.0997 83.2045 26.0997H82.1413V25.7231H83.2045C83.487 25.7231 83.7456 25.769 83.9803 25.8607C84.2174 25.95 84.4221 26.0804 84.5945 26.2518C84.7669 26.4232 84.8998 26.6272 84.9932 26.8638C85.089 27.1004 85.1369 27.3648 85.1369 27.6569V28.0118C85.1369 28.4005 85.0543 28.7397 84.8891 29.0295C84.7238 29.3192 84.4939 29.5437 84.1994 29.703C83.9073 29.8624 83.5684 29.9421 83.1829 29.9421ZM82.364 25.7231V29.9421H81.9365V25.7231H82.364Z" fill="url(#paint23_linear_266_7045)"/>
<path d="M87.6383 28.1386L89.0392 25.7231H89.5277L87.9041 28.4319H87.6132L87.6383 28.1386ZM86.374 25.7231L87.7784 28.1494L87.7928 28.4319H87.5126L85.8855 25.7231H86.374ZM87.9149 28.106V29.9421H87.4874V28.106H87.9149Z" fill="url(#paint24_linear_266_7045)"/>
<path d="M95.3243 29.569V29.9421H92.9931V29.569H95.3243ZM93.1296 25.7231V29.9421H92.7022V25.7231H93.1296Z" fill="url(#paint25_linear_266_7045)"/>
<path d="M96.9205 25.7231V29.9421H96.4931V25.7231H96.9205Z" fill="url(#paint26_linear_266_7045)"/>
<path d="M100.047 27.9466H98.7862L98.779 27.5954H99.8601C100.08 27.5954 100.266 27.5676 100.417 27.5121C100.57 27.4565 100.686 27.3733 100.765 27.2622C100.847 27.1511 100.887 27.0147 100.887 26.853C100.887 26.6816 100.847 26.5403 100.765 26.4293C100.684 26.3182 100.563 26.2361 100.403 26.183C100.242 26.1275 100.043 26.0997 99.8063 26.0997H98.9083V29.9421H98.4809V25.7231H99.8063C100.039 25.7231 100.247 25.746 100.431 25.7919C100.618 25.8353 100.777 25.9029 100.909 25.9947C101.041 26.0864 101.141 26.2023 101.211 26.3423C101.28 26.4824 101.315 26.649 101.315 26.8421C101.315 27.0159 101.274 27.1729 101.193 27.3129C101.111 27.4529 100.994 27.5664 100.841 27.6533C100.69 27.7402 100.505 27.7933 100.288 27.8127L100.047 27.9466ZM100.015 29.9421H98.6569L98.8616 29.569H100.015C100.233 29.569 100.418 29.5377 100.571 29.4749C100.725 29.4097 100.842 29.3168 100.923 29.196C101.005 29.0729 101.045 28.9268 101.045 28.7578C101.045 28.6057 101.01 28.4681 100.938 28.345C100.866 28.2219 100.757 28.1253 100.611 28.0553C100.465 27.9829 100.277 27.9466 100.047 27.9466H99.2531L99.2567 27.5954H100.37L100.449 27.7257C100.66 27.7402 100.842 27.797 100.995 27.8959C101.148 27.9925 101.266 28.1169 101.347 28.269C101.431 28.4186 101.473 28.5804 101.473 28.7542C101.473 28.9498 101.438 29.1224 101.369 29.2721C101.299 29.4194 101.2 29.5425 101.071 29.6415C100.944 29.7405 100.79 29.8153 100.611 29.866C100.434 29.9167 100.235 29.9421 100.015 29.9421Z" fill="url(#paint27_linear_266_7045)"/>
<path d="M102.732 25.7231H104.215C104.45 25.7231 104.662 25.7521 104.851 25.81C105.042 25.8655 105.205 25.9476 105.339 26.0563C105.473 26.1625 105.576 26.2953 105.648 26.4546C105.72 26.6115 105.756 26.7914 105.756 26.9942C105.756 27.1994 105.712 27.3829 105.623 27.5447C105.534 27.7064 105.411 27.8416 105.253 27.9503C105.097 28.0589 104.917 28.135 104.711 28.1784L104.563 28.2472H103.008L103.001 27.8742H104.294C104.524 27.8742 104.714 27.8344 104.865 27.7547C105.018 27.675 105.133 27.5688 105.21 27.436C105.287 27.3032 105.325 27.1608 105.325 27.0087C105.325 26.8252 105.282 26.6659 105.196 26.5307C105.112 26.393 104.987 26.2868 104.822 26.212C104.657 26.1371 104.454 26.0997 104.215 26.0997H103.163V29.9421H102.732V25.7231ZM105.487 29.9421L104.337 28.0843L104.793 28.0806L105.943 29.9058V29.9421H105.487Z" fill="url(#paint28_linear_266_7045)"/>
<path d="M108.588 26.2265L107.122 29.9421H106.677L108.379 25.7231H108.685L108.588 26.2265ZM110.039 29.9421L108.577 26.2192L108.484 25.7231H108.789L110.481 29.9421H110.039ZM109.759 28.4464V28.8158H107.392V28.4464H109.759Z" fill="url(#paint29_linear_266_7045)"/>
<path d="M111.484 25.7231H112.968C113.202 25.7231 113.414 25.7521 113.604 25.81C113.795 25.8655 113.958 25.9476 114.092 26.0563C114.226 26.1625 114.329 26.2953 114.401 26.4546C114.473 26.6115 114.509 26.7914 114.509 26.9942C114.509 27.1994 114.464 27.3829 114.376 27.5447C114.287 27.7064 114.164 27.8416 114.006 27.9503C113.85 28.0589 113.669 28.135 113.463 28.1784L113.316 28.2472H111.761L111.754 27.8742H113.047C113.277 27.8742 113.467 27.8344 113.618 27.7547C113.771 27.675 113.886 27.5688 113.963 27.436C114.039 27.3032 114.078 27.1608 114.078 27.0087C114.078 26.8252 114.035 26.6659 113.948 26.5307C113.865 26.393 113.74 26.2868 113.575 26.212C113.41 26.1371 113.207 26.0997 112.968 26.0997H111.915V29.9421H111.484V25.7231ZM114.239 29.9421L113.09 28.0843L113.546 28.0806L114.695 29.9058V29.9421H114.239Z" fill="url(#paint30_linear_266_7045)"/>
<path d="M117.111 28.1386L118.512 25.7231H119L117.376 28.4319H117.086L117.111 28.1386ZM115.846 25.7231L117.251 28.1494L117.265 28.4319H116.985L115.358 25.7231H115.846ZM117.387 28.106V29.9421H116.96V28.106H117.387Z" fill="url(#paint31_linear_266_7045)"/>
<defs>
<linearGradient id="paint0_linear_266_7045" x1="0" y1="15" x2="119" y2="15" gradientUnits="userSpaceOnUse">
<stop stop-color="#0470E1"/>
<stop offset="1" stop-color="#9521DC"/>
</linearGradient>
<linearGradient id="paint1_linear_266_7045" x1="0" y1="15" x2="119" y2="15" gradientUnits="userSpaceOnUse">
<stop stop-color="#0470E1"/>
<stop offset="1" stop-color="#9521DC"/>
</linearGradient>
<linearGradient id="paint2_linear_266_7045" x1="0" y1="15" x2="119" y2="15" gradientUnits="userSpaceOnUse">
<stop stop-color="#0470E1"/>
<stop offset="1" stop-color="#9521DC"/>
</linearGradient>
<linearGradient id="paint3_linear_266_7045" x1="0" y1="15" x2="119" y2="15" gradientUnits="userSpaceOnUse">
<stop stop-color="#0470E1"/>
<stop offset="1" stop-color="#9521DC"/>
</linearGradient>
<linearGradient id="paint4_linear_266_7045" x1="0" y1="15" x2="119" y2="15" gradientUnits="userSpaceOnUse">
<stop stop-color="#0470E1"/>
<stop offset="1" stop-color="#9521DC"/>
</linearGradient>
<linearGradient id="paint5_linear_266_7045" x1="0" y1="15" x2="119" y2="15" gradientUnits="userSpaceOnUse">
<stop stop-color="#0470E1"/>
<stop offset="1" stop-color="#9521DC"/>
</linearGradient>
<linearGradient id="paint6_linear_266_7045" x1="0" y1="15" x2="119" y2="15" gradientUnits="userSpaceOnUse">
<stop stop-color="#0470E1"/>
<stop offset="1" stop-color="#9521DC"/>
</linearGradient>
<linearGradient id="paint7_linear_266_7045" x1="0" y1="15" x2="119" y2="15" gradientUnits="userSpaceOnUse">
<stop stop-color="#0470E1"/>
<stop offset="1" stop-color="#9521DC"/>
</linearGradient>
<linearGradient id="paint8_linear_266_7045" x1="0" y1="15" x2="119" y2="15" gradientUnits="userSpaceOnUse">
<stop stop-color="#0470E1"/>
<stop offset="1" stop-color="#9521DC"/>
</linearGradient>
<linearGradient id="paint9_linear_266_7045" x1="0" y1="15" x2="119" y2="15" gradientUnits="userSpaceOnUse">
<stop stop-color="#0470E1"/>
<stop offset="1" stop-color="#9521DC"/>
</linearGradient>
<linearGradient id="paint10_linear_266_7045" x1="0" y1="15" x2="119" y2="15" gradientUnits="userSpaceOnUse">
<stop stop-color="#0470E1"/>
<stop offset="1" stop-color="#9521DC"/>
</linearGradient>
<linearGradient id="paint11_linear_266_7045" x1="0" y1="15" x2="119" y2="15" gradientUnits="userSpaceOnUse">
<stop stop-color="#0470E1"/>
<stop offset="1" stop-color="#9521DC"/>
</linearGradient>
<linearGradient id="paint12_linear_266_7045" x1="0" y1="15" x2="119" y2="15" gradientUnits="userSpaceOnUse">
<stop stop-color="#0470E1"/>
<stop offset="1" stop-color="#9521DC"/>
</linearGradient>
<linearGradient id="paint13_linear_266_7045" x1="0" y1="15" x2="119" y2="15" gradientUnits="userSpaceOnUse">
<stop stop-color="#0470E1"/>
<stop offset="1" stop-color="#9521DC"/>
</linearGradient>
<linearGradient id="paint14_linear_266_7045" x1="0" y1="15" x2="119" y2="15" gradientUnits="userSpaceOnUse">
<stop stop-color="#0470E1"/>
<stop offset="1" stop-color="#9521DC"/>
</linearGradient>
<linearGradient id="paint15_linear_266_7045" x1="0" y1="15" x2="119" y2="15" gradientUnits="userSpaceOnUse">
<stop stop-color="#0470E1"/>
<stop offset="1" stop-color="#9521DC"/>
</linearGradient>
<linearGradient id="paint16_linear_266_7045" x1="0" y1="15" x2="119" y2="15" gradientUnits="userSpaceOnUse">
<stop stop-color="#0470E1"/>
<stop offset="1" stop-color="#9521DC"/>
</linearGradient>
<linearGradient id="paint17_linear_266_7045" x1="0" y1="15" x2="119" y2="15" gradientUnits="userSpaceOnUse">
<stop stop-color="#0470E1"/>
<stop offset="1" stop-color="#9521DC"/>
</linearGradient>
<linearGradient id="paint18_linear_266_7045" x1="0" y1="15" x2="119" y2="15" gradientUnits="userSpaceOnUse">
<stop stop-color="#0470E1"/>
<stop offset="1" stop-color="#9521DC"/>
</linearGradient>
<linearGradient id="paint19_linear_266_7045" x1="0" y1="15" x2="119" y2="15" gradientUnits="userSpaceOnUse">
<stop stop-color="#0470E1"/>
<stop offset="1" stop-color="#9521DC"/>
</linearGradient>
<linearGradient id="paint20_linear_266_7045" x1="0" y1="15" x2="119" y2="15" gradientUnits="userSpaceOnUse">
<stop stop-color="#0470E1"/>
<stop offset="1" stop-color="#9521DC"/>
</linearGradient>
<linearGradient id="paint21_linear_266_7045" x1="0" y1="15" x2="119" y2="15" gradientUnits="userSpaceOnUse">
<stop stop-color="#0470E1"/>
<stop offset="1" stop-color="#9521DC"/>
</linearGradient>
<linearGradient id="paint22_linear_266_7045" x1="0" y1="15" x2="119" y2="15" gradientUnits="userSpaceOnUse">
<stop stop-color="#0470E1"/>
<stop offset="1" stop-color="#9521DC"/>
</linearGradient>
<linearGradient id="paint23_linear_266_7045" x1="0" y1="15" x2="119" y2="15" gradientUnits="userSpaceOnUse">
<stop stop-color="#0470E1"/>
<stop offset="1" stop-color="#9521DC"/>
</linearGradient>
<linearGradient id="paint24_linear_266_7045" x1="0" y1="15" x2="119" y2="15" gradientUnits="userSpaceOnUse">
<stop stop-color="#0470E1"/>
<stop offset="1" stop-color="#9521DC"/>
</linearGradient>
<linearGradient id="paint25_linear_266_7045" x1="0" y1="15" x2="119" y2="15" gradientUnits="userSpaceOnUse">
<stop stop-color="#0470E1"/>
<stop offset="1" stop-color="#9521DC"/>
</linearGradient>
<linearGradient id="paint26_linear_266_7045" x1="0" y1="15" x2="119" y2="15" gradientUnits="userSpaceOnUse">
<stop stop-color="#0470E1"/>
<stop offset="1" stop-color="#9521DC"/>
</linearGradient>
<linearGradient id="paint27_linear_266_7045" x1="0" y1="15" x2="119" y2="15" gradientUnits="userSpaceOnUse">
<stop stop-color="#0470E1"/>
<stop offset="1" stop-color="#9521DC"/>
</linearGradient>
<linearGradient id="paint28_linear_266_7045" x1="0" y1="15" x2="119" y2="15" gradientUnits="userSpaceOnUse">
<stop stop-color="#0470E1"/>
<stop offset="1" stop-color="#9521DC"/>
</linearGradient>
<linearGradient id="paint29_linear_266_7045" x1="0" y1="15" x2="119" y2="15" gradientUnits="userSpaceOnUse">
<stop stop-color="#0470E1"/>
<stop offset="1" stop-color="#9521DC"/>
</linearGradient>
<linearGradient id="paint30_linear_266_7045" x1="0" y1="15" x2="119" y2="15" gradientUnits="userSpaceOnUse">
<stop stop-color="#0470E1"/>
<stop offset="1" stop-color="#9521DC"/>
</linearGradient>
<linearGradient id="paint31_linear_266_7045" x1="0" y1="15" x2="119" y2="15" gradientUnits="userSpaceOnUse">
<stop stop-color="#0470E1"/>
<stop offset="1" stop-color="#9521DC"/>
</linearGradient>
</defs>
</svg>
