<svg width="24" height="24" viewBox="0 0 24 24" fill="none" xmlns="http://www.w3.org/2000/svg">
<path d="M12 22.75C11.59 22.75 11.25 22.41 11.25 22V20C11.25 19.59 11.59 19.25 12 19.25C12.41 19.25 12.75 19.59 12.75 20V22C12.75 22.41 12.41 22.75 12 22.75Z" fill="#292D32"/>
<path d="M12 18.75C11.59 18.75 11.25 18.41 11.25 18V16C11.25 15.59 11.59 15.25 12 15.25C12.41 15.25 12.75 15.59 12.75 16V18C12.75 18.41 12.41 18.75 12 18.75Z" fill="#292D32"/>
<path d="M12 14.75C11.59 14.75 11.25 14.41 11.25 14V11C11.25 6.73 14.73 3.25 19 3.25H22C22.41 3.25 22.75 3.59 22.75 4C22.75 4.41 22.41 4.75 22 4.75H19C15.55 4.75 12.75 7.55 12.75 11V14C12.75 14.41 12.41 14.75 12 14.75Z" fill="#292D32"/>
<path d="M12 14.75C11.59 14.75 11.25 14.41 11.25 14V11C11.25 7.55 8.45 4.75 5 4.75H2C1.59 4.75 1.25 4.41 1.25 4C1.25 3.59 1.59 3.25 2 3.25H5C9.27 3.25 12.75 6.73 12.75 11V14C12.75 14.41 12.41 14.75 12 14.75Z" fill="#292D32"/>
<path d="M4.00144 6.74994C3.81144 6.74994 3.62141 6.67994 3.47141 6.52994L1.47141 4.52994C1.18141 4.23994 1.18141 3.75994 1.47141 3.46994L3.47141 1.46994C3.76141 1.17994 4.24146 1.17994 4.53146 1.46994C4.82146 1.75994 4.82146 2.23994 4.53146 2.52994L3.06143 3.99994L4.53146 5.46994C4.82146 5.75994 4.82146 6.23994 4.53146 6.52994C4.38146 6.67994 4.19144 6.74994 4.00144 6.74994Z" fill="#292D32"/>
<path d="M20.0014 6.74994C19.8114 6.74994 19.6214 6.67994 19.4714 6.52994C19.1814 6.23994 19.1814 5.75994 19.4714 5.46994L20.9414 3.99994L19.4714 2.52994C19.1814 2.23994 19.1814 1.75994 19.4714 1.46994C19.7614 1.17994 20.2415 1.17994 20.5315 1.46994L22.5315 3.46994C22.8215 3.75994 22.8215 4.23994 22.5315 4.52994L20.5315 6.52994C20.3815 6.67994 20.1914 6.74994 20.0014 6.74994Z" fill="#292D32"/>
</svg>
