<svg width="184" height="120" viewBox="0 0 184 120" fill="none" xmlns="http://www.w3.org/2000/svg">
<g clip-path="url(#clip0_764_5334)">
<path d="M40.9438 41.2378V32.4113H8.91132V24.8869H40.9438V16.0594H0V57.6197H40.9438V48.7922H8.91132V41.2378H40.9438Z" fill="url(#paint0_linear_764_5334)"/>
<path d="M75.6843 68.82C72.7359 65.6981 71.2632 61.2834 71.2632 55.5797V18.0994C71.2632 12.3956 72.7369 7.98281 75.6843 4.85906C78.6308 1.73719 82.8824 0.174377 88.4346 0.174377C93.9868 0.174377 98.2366 1.73719 101.185 4.85906C104.131 7.98281 105.606 12.3956 105.606 18.0994V55.5797C105.606 61.2834 104.131 65.6981 101.185 68.82C98.2366 71.9437 93.9868 73.5047 88.4346 73.5047C82.8824 73.5056 78.6308 71.9437 75.6843 68.82ZM94.2963 56.2922V17.3859C94.2963 12.7013 92.3427 10.3584 88.4346 10.3584C84.5275 10.3584 82.5729 12.7013 82.5729 17.3859V56.2922C82.5729 60.9769 84.5265 63.3197 88.4346 63.3197C92.3418 63.3206 94.2963 60.9778 94.2963 56.2922Z" fill="#12121D"/>
<path d="M112.05 0.173431H123.684V63.0291H142.827V73.5047H112.05V0.173431Z" fill="#12121D"/>
<path d="M148.887 0.173431H166.654C172.436 0.173431 176.772 1.70999 179.663 4.78312C182.554 7.85718 184 12.3609 184 18.2972V55.3819C184 61.3191 182.554 65.8228 179.663 68.8959C176.772 71.97 172.435 73.5056 166.654 73.5056H148.887V0.173431ZM166.442 63.0291C168.347 63.0291 169.809 62.4703 170.831 61.3528C171.853 60.2372 172.366 58.4194 172.366 55.905V17.7731C172.366 15.2597 171.854 13.4437 170.831 12.3253C169.809 11.2097 168.346 10.6491 166.442 10.6491H160.52V63.0281H166.442V63.0291Z" fill="#12121D"/>
<path d="M65.939 20.8078V20.4572C65.939 9.17719 56.6737 0 45.2845 0H0.000976562V8.82656H45.2845C51.7604 8.82656 57.0268 14.0438 57.0268 20.4572V20.8078C57.0268 27.0056 52.1088 32.0859 45.9357 32.4216C45.7189 32.415 45.5022 32.4103 45.2845 32.4103H40.9438V32.4403V41.2369V41.2669H45.2845C45.5022 41.2669 45.7189 41.2622 45.9357 41.2556C52.1097 41.5912 57.0268 46.6725 57.0268 52.8694V53.22C57.0268 59.6344 51.7595 64.8506 45.2845 64.8506H0.000976562V73.6791H45.2845C56.6737 73.6791 65.939 64.5 65.939 53.2191V52.8684C65.939 46.3809 62.8733 40.5881 58.1029 36.8372C62.8733 33.0891 65.939 27.2972 65.939 20.8078Z" fill="#12121D"/>
<path d="M173.453 106.842C174.579 107.545 174.958 108.611 175.169 109.767C175.225 110.102 175.113 110.415 174.888 110.645C174.297 111.244 173.713 111.863 173.06 112.386C170.888 114.134 168.504 115.583 166.1 116.982C164.377 117.985 162.626 118.926 160.784 119.706C159.617 120.2 158.555 120.04 157.536 119.385C156.397 118.654 155.596 117.679 155.356 116.314C155.264 115.792 155.384 115.359 155.736 114.963C156.579 114.03 157.599 113.319 158.654 112.651C161.859 110.617 165.2 108.82 168.666 107.254C168.743 107.219 168.828 107.177 168.954 107.107C168.786 107.024 168.666 106.955 168.532 106.906C166.43 106.035 164.32 105.172 162.226 104.288C161.811 104.113 161.41 103.883 161.016 103.66C160.889 103.591 160.84 103.577 160.735 103.703C158.682 106.126 156.615 108.535 154.245 110.674C151.616 113.042 148.732 115.041 145.428 116.392C143.48 117.186 141.47 117.757 139.368 118C138.377 118.112 137.385 118.167 136.394 118.265C135.452 118.356 134.629 118.035 133.849 117.576C132.428 116.733 131.304 115.583 130.361 114.254C129.377 112.861 128.667 111.35 128.315 109.686C128.103 108.676 127.991 107.652 128.16 106.621C128.167 106.572 128.16 106.517 128.16 106.426C127.598 107.074 127.084 107.7 126.529 108.292C124.378 110.59 122.149 112.798 119.575 114.644C118.366 115.507 117.094 116.267 115.666 116.734C113.915 117.305 112.215 117.166 110.554 116.393C109.422 115.863 108.466 115.111 107.644 114.185C106.428 112.82 105.527 111.294 105.113 109.511C104.951 108.801 104.93 108.083 105.113 107.366C105.127 107.317 105.127 107.269 105.078 107.185C104.656 107.652 104.227 108.112 103.805 108.585C103.594 108.822 103.39 109.066 103.179 109.302C102.441 110.152 101.717 111.008 100.971 111.851C99.7198 113.251 98.5593 114.742 97.1112 115.953C95.9858 116.9 94.8121 117.805 93.4549 118.418C92.3721 118.913 91.24 119.219 90.0522 119.365C89.0394 119.491 88.0276 119.512 87.029 119.331C86.7688 119.282 86.5019 119.164 86.2766 119.018C85.8052 118.711 85.3348 118.404 84.9969 117.91C84.111 116.608 83.7731 115.18 83.8015 113.634C83.8365 111.698 84.3079 109.874 85.1237 108.126C85.3272 107.693 85.4891 107.242 85.7077 106.816C86.003 106.252 86.3192 105.688 86.6637 105.152C86.994 104.63 87.367 104.135 87.7323 103.634C88.2737 102.889 88.8293 102.157 89.3707 101.412C89.4407 101.315 89.4833 101.197 89.5609 101.05C88.9495 101.154 88.3863 101.252 87.8175 101.336C86.2775 101.573 84.7309 101.803 83.1626 101.852C82.8323 101.858 82.4593 101.803 82.1924 101.935C81.9463 102.061 81.7921 102.402 81.6302 102.66C80.6667 104.213 79.4296 105.536 78.0581 106.72C77.1788 107.472 76.1878 108.099 75.2385 108.768C74.8021 109.074 74.3459 109.367 73.8746 109.617C73.4174 109.861 72.9252 110.028 72.4614 110.251C71.7516 110.592 71.0341 110.891 70.2608 111.052C70.0147 111.1 69.7753 111.198 69.5367 111.289C68.4047 111.699 67.2027 111.77 66.0281 111.999C65.887 112.028 65.7394 112.103 65.6409 112.201C64.171 113.692 62.6244 115.098 60.9226 116.324C59.5511 117.313 58.1106 118.225 56.528 118.845C55.6071 119.207 54.6369 119.493 53.61 119.451C52.9351 119.423 52.4079 119.144 52.0558 118.587C51.7255 118.072 51.4586 117.515 51.1349 116.993C50.9172 116.637 50.6777 116.296 50.4032 115.983C49.4965 114.973 49.0185 113.789 48.8916 112.466C48.8424 111.951 48.885 111.436 48.885 110.962C46.0588 113.35 42.9788 115.453 39.5686 117.069C37.5081 118.044 35.3425 118.699 33.0576 118.942C30.7794 119.186 28.9233 118.4 27.4818 116.679C25.8434 114.723 24.9925 112.48 25.0909 109.917C25.1401 108.754 25.4988 107.703 26.3214 106.839C27.5726 105.523 28.6062 104.047 29.5764 102.529C30.1528 101.631 30.7084 100.718 31.2706 99.8128C31.3265 99.7153 31.3757 99.6112 31.4467 99.465C30.9545 99.4931 30.5115 99.5137 30.0686 99.5344C28.4093 99.6112 26.7501 99.7575 25.0833 99.6178C24.4227 99.5625 23.7895 99.4087 23.1988 99.0881C22.1094 98.4966 21.7289 97.4372 21.7923 96.33C21.8065 96.1209 21.9192 96.0862 22.116 96.135C22.6783 96.2953 23.2339 96.4969 23.8037 96.5737C24.6053 96.6853 25.4212 96.7547 26.2295 96.7547C28.4302 96.7547 30.6384 96.72 32.839 96.7059C33.0008 96.7059 33.0851 96.6572 33.1551 96.5175C35.138 92.8547 37.0575 89.1562 38.6533 85.305C38.9628 84.5531 39.2089 83.7797 39.4692 83.0137C39.6235 82.5544 39.6235 82.1016 39.4484 81.6422C39.2449 81.1059 39.4626 80.8341 40.0182 81.015C40.5104 81.1753 41.0026 81.4116 41.4247 81.7181C42.4933 82.4916 43.4284 83.3962 44.0758 84.5597C44.4554 85.2422 44.5254 85.9312 44.2935 86.67C43.949 87.7912 43.365 88.8084 42.782 89.8106C41.4957 92.0184 40.0324 94.1072 38.5984 96.2175C38.5492 96.2869 38.5066 96.3637 38.4442 96.4753C38.7328 96.4753 38.9856 96.4819 39.2383 96.4753C40.3069 96.4331 41.3755 96.42 42.4441 96.3291C43.506 96.2381 44.1601 96.7256 44.5888 97.6172C44.9334 98.3344 45.0877 99.0862 44.94 99.8737C44.8842 100.166 44.7289 100.382 44.4478 100.514C44.1459 100.646 43.8856 100.612 43.6461 100.382C43.4351 100.18 43.2382 99.9713 43.0063 99.7903C42.3106 99.2334 41.4739 99.0103 40.6088 98.9962C39.3784 98.9756 38.1413 99.0309 36.9108 99.0516C36.6789 99.0516 36.5313 99.1556 36.3978 99.3441C34.2748 102.443 32.2077 105.584 30.5409 108.954C30.0203 109.999 29.5773 111.079 29.3946 112.241C29.3028 112.84 29.247 113.439 29.5139 114.024C29.7808 114.609 30.2238 114.895 30.8636 114.902C32.0023 114.902 33.1135 114.749 34.2313 114.512C36.678 113.99 38.9496 113.035 41.1568 111.893C44.1733 110.333 46.9437 108.418 49.5731 106.301C50.5291 105.535 51.5135 104.79 52.407 103.955C53.026 103.376 53.5106 102.667 54.0804 102.025C54.4041 101.663 54.5725 101.266 54.706 100.8C54.8679 100.236 55.1698 99.7069 55.4585 99.1847C56.0425 98.1544 56.83 97.29 57.7575 96.5381C58.8195 95.6747 60.0074 95.0616 61.3154 94.6922C62.5033 94.3575 63.7337 94.1559 64.9718 94.3716C66.2372 94.5947 67.3342 95.1938 68.3044 96.0291C68.3678 96.0844 68.4237 96.1472 68.4871 96.1959C69.8018 97.2056 70.7445 98.5078 71.5528 99.9291C72.0942 100.883 72.045 101.865 71.7497 102.861C71.5954 103.383 71.3985 103.898 71.1941 104.407C70.6811 105.688 69.9428 106.851 69.1619 107.986C69.1477 108.007 69.1477 108.035 69.1193 108.126C69.6399 108.007 70.1321 107.924 70.6025 107.784C71.9106 107.401 73.2111 106.97 74.4131 106.308C75.7628 105.562 77.0283 104.699 78.1111 103.584C78.7443 102.937 79.3274 102.268 79.8195 101.516C79.9464 101.321 79.9814 101.175 79.7912 100.98C78.6525 99.7959 78.343 98.3541 78.4556 96.7809C78.5049 96.0778 78.8494 95.5481 79.5034 95.2491C80.1224 94.9631 80.7547 94.7062 81.3737 94.4269C81.9293 94.1691 82.4423 94.3153 82.8853 94.65C83.1948 94.8797 83.4475 95.1928 83.7012 95.4853C84.0949 95.9306 84.0523 96.4669 83.9823 97.0031C83.9614 97.1428 83.9472 97.2891 83.9264 97.4484C84.0107 97.455 84.0674 97.4691 84.1299 97.4691C85.9368 97.4203 87.737 97.2459 89.5297 97.0097C91.1113 96.8006 92.7005 96.6262 94.2897 96.4669C94.8737 96.4041 95.4567 96.39 96.0407 96.3975C96.6247 96.4041 97.1443 96.6066 97.5873 96.9966C98.2337 97.5675 98.8603 98.16 99.2181 98.9747C99.4576 99.5109 99.415 99.8869 98.9786 100.291C98.7818 100.472 98.5565 100.632 98.3246 100.785C98.247 100.84 98.1211 100.84 98.0151 100.84C97.91 100.84 97.7974 100.806 97.6914 100.771C97.1642 100.59 96.6862 100.694 96.2499 101.021C95.8277 101.342 95.3923 101.641 95.0128 102.003C94.2953 102.692 93.5997 103.402 92.974 104.19C92.1089 105.277 91.3148 106.398 90.6049 107.582C89.8667 108.807 89.2126 110.075 88.7138 111.413C88.3551 112.381 88.1232 113.377 88.144 114.428C88.1649 115.202 88.6788 115.828 89.5572 115.779C89.9793 115.759 90.4081 115.688 90.8226 115.591C91.6527 115.389 92.4042 115.006 93.1643 114.63C95.3857 113.537 97.4254 112.158 99.4216 110.709C100.968 109.588 102.48 108.425 104.006 107.276C104.442 106.949 104.863 106.608 105.279 106.252C105.405 106.148 105.525 106.002 105.588 105.848C106.361 103.975 107.317 102.192 108.274 100.409C108.886 99.2597 109.505 98.1178 110.116 96.9684C110.362 96.5156 110.461 96.0281 110.475 95.5125C110.475 95.2547 110.531 94.9903 110.608 94.7466C110.721 94.4119 110.959 94.2797 111.297 94.3987C111.734 94.545 112.183 94.7053 112.556 94.9631C113.21 95.4159 113.822 95.9381 114.433 96.4463C114.602 96.5859 114.743 96.7594 114.869 96.9337C115.79 98.2219 115.706 98.6259 115.017 99.7125C113.85 101.551 112.64 103.375 111.453 105.201C110.587 106.538 109.737 107.888 109.182 109.387C108.985 109.923 108.823 110.473 108.901 111.051C109.048 112.151 109.871 112.861 111.011 112.854C112.389 112.848 113.703 112.541 114.997 112.088C117.472 111.232 119.729 109.972 121.923 108.578C123.758 107.408 125.53 106.147 127.218 104.776C127.766 104.331 128.343 103.913 128.877 103.446C129.193 103.167 129.496 102.847 129.713 102.491C131.071 100.318 132.821 98.5144 134.924 97.0312C136.913 95.6316 139.065 94.6003 141.463 94.1128C142.392 93.9244 143.34 93.8062 144.283 93.7716C145.696 93.7162 146.969 94.1269 147.981 95.1647C148.1 95.2828 148.283 95.3663 148.452 95.4225C149.233 95.6803 149.957 96.0216 150.575 96.5719C150.645 96.6347 150.709 96.69 150.772 96.7603C151.369 97.4916 151.405 97.8881 150.976 98.5922C150.322 99.6581 149.471 100.563 148.571 101.426C146.405 103.494 143.93 105.097 141.145 106.238C139.697 106.83 138.199 107.262 136.638 107.437C135.781 107.534 134.909 107.589 134.044 107.618C133.27 107.646 132.561 107.443 131.997 106.844C131.561 107.791 131.181 108.731 131.069 109.763C130.893 111.399 131.765 112.639 133.41 112.959C133.917 113.057 134.444 113.092 134.965 113.085C138.129 113.043 141.209 112.535 144.232 111.594C146.707 110.828 149.069 109.819 151.354 108.621C154.209 107.123 156.916 105.41 159.419 103.376C159.61 103.223 159.799 103.063 160.003 102.923C160.165 102.812 160.207 102.722 160.102 102.533C159.736 101.893 159.56 101.203 159.511 100.472C159.476 99.9637 159.581 99.5034 159.849 99.0787C160.44 98.1244 161.185 97.2891 162.015 96.5438C163.653 95.0672 165.417 93.7584 167.351 92.6784C167.907 92.3653 168.518 92.1 169.144 91.9678C170.023 91.7869 170.866 92.0719 171.633 92.5106C172.695 93.1163 173.573 93.9244 174.172 94.9903C174.326 95.2687 174.432 95.5819 174.516 95.8959C174.635 96.3281 174.453 96.5437 173.989 96.5578C173.919 96.5578 173.841 96.5578 173.771 96.5578C172.695 96.3628 171.69 96.6131 170.72 97.0594C168.533 98.0625 166.522 99.3225 164.779 100.98C164.49 101.252 164.258 101.586 164.04 101.913C163.823 102.247 163.872 102.518 164.216 102.728C164.708 103.013 165.221 103.278 165.756 103.473C166.931 103.897 168.125 104.259 169.3 104.685C170.052 104.957 170.783 105.291 171.508 105.632C171.81 105.772 172.064 105.772 172.366 105.652C173.912 105.053 175.446 104.434 177.013 103.883C179.01 103.187 181.028 102.561 183.159 102.372C183.37 102.352 183.581 102.344 183.784 102.372C183.876 102.386 184.002 102.512 184.002 102.588C184.002 102.664 183.883 102.797 183.791 102.817C183.391 102.901 182.975 102.929 182.575 103.019C181.316 103.297 180.1 103.73 178.933 104.252C177.189 105.032 175.466 105.854 173.73 106.661C173.645 106.703 173.561 106.759 173.428 106.836L173.453 106.842ZM64.703 98.0531C64.879 98.2134 65.0333 98.3456 65.1667 98.4919C65.4337 98.7844 65.7223 99.0703 65.9542 99.39C66.3338 99.9122 66.453 100.497 66.3054 101.138C66.2628 101.313 66.1861 101.452 65.9893 101.445C65.6731 101.445 65.356 101.438 65.0399 101.41C63.8729 101.306 62.7617 101.396 61.6865 101.947C60.6529 102.476 59.7603 103.179 58.916 103.952C58.5015 104.335 58.1428 104.795 57.7774 105.226C57.714 105.303 57.6648 105.463 57.7074 105.539C57.9677 106.082 58.2062 106.632 58.6359 107.085C59.3249 107.816 60.1758 108.255 61.1318 108.45C62.0111 108.631 62.9245 108.652 63.818 108.728C63.8814 108.728 63.9656 108.666 64.0082 108.61C64.2827 108.234 64.5354 107.851 64.8023 107.475C65.1753 106.945 65.5898 106.445 65.906 105.887C66.419 104.975 66.9045 104.048 67.2282 103.045C67.5661 102.015 67.6428 100.977 67.3475 99.9319C67.0238 98.7966 66.2581 97.7934 64.7105 98.0587L64.703 98.0531ZM132.702 105.651C132.919 105.693 133.102 105.742 133.286 105.769C134.586 105.936 135.802 105.608 136.998 105.149C139.093 104.341 140.893 103.053 142.615 101.681C143.565 100.922 144.43 100.058 145.273 99.1809C145.759 98.6728 146.124 98.0597 146.503 97.4681C146.644 97.2525 146.672 96.9741 146.756 96.6947C146.629 96.6806 146.58 96.6666 146.524 96.6741C146.025 96.7162 145.519 96.7294 145.027 96.8062C142.496 97.2169 140.274 98.3381 138.214 99.8006C137.236 100.49 136.365 101.298 135.521 102.134C134.453 103.186 133.532 104.342 132.709 105.658L132.702 105.651ZM56.21 107.064C55.9213 107.475 55.6478 107.83 55.4159 108.214C55.0221 108.848 54.6426 109.488 54.2905 110.143C54.122 110.45 54.0236 110.783 53.8967 111.112C53.7425 111.495 53.5588 111.871 53.4538 112.268C53.2503 113.027 53.0534 113.793 53.2011 114.587C53.2787 115.026 53.433 115.464 53.8267 115.715C54.4457 116.098 55.1272 116.139 55.7954 115.861C56.6956 115.492 57.4972 114.941 58.2355 114.329C59.2757 113.472 60.2819 112.568 61.3713 111.634C59.1347 110.617 57.5171 109.036 56.21 107.064ZM164.637 112.692C164.918 112.629 165.15 112.595 165.375 112.525C167.449 111.871 169.376 110.917 171.176 109.712C171.457 109.523 171.697 109.259 171.949 109.029C172.083 108.904 172.054 108.765 171.928 108.66C171.717 108.486 171.492 108.333 171.282 108.166C171.141 108.054 171.015 108.062 170.86 108.152C169.271 109.085 167.661 109.99 166.086 110.951C165.509 111.307 165.003 111.766 164.476 112.198C164.384 112.275 164.356 112.421 164.3 112.539C164.426 112.595 164.546 112.651 164.651 112.7L164.637 112.692Z" fill="#12121D"/>
<path d="M13.5729 107.064C13.1934 106.904 12.8063 106.737 12.4267 106.577C10.5072 105.783 8.60189 104.954 6.66819 104.202C4.8405 103.492 4.15144 101.472 4.20066 100.093C4.21486 99.6122 4.44013 99.2091 4.69947 98.8256C5.27589 97.9762 5.95831 97.2103 6.72404 96.5203C8.33404 95.0784 10.0709 93.8044 11.9412 92.7244C12.2081 92.5716 12.4968 92.4459 12.7712 92.3062C13.7556 91.7841 14.7608 91.8328 15.7593 92.2509C17.1166 92.8219 18.1426 93.7687 18.8809 95.0231C19.0494 95.3091 19.1478 95.6362 19.2254 95.9559C19.3239 96.3319 19.1412 96.5409 18.7475 96.5691C18.649 96.5691 18.544 96.5831 18.4455 96.5691C17.3977 96.3881 16.4209 96.6178 15.4716 97.05C13.2634 98.0531 11.2388 99.3206 9.4812 100.985C9.20671 101.242 8.97482 101.556 8.77132 101.876C8.5186 102.273 8.56025 102.531 8.96157 102.768C9.43292 103.046 9.9393 103.297 10.4523 103.485C11.6269 103.91 12.8214 104.265 13.996 104.697C14.7693 104.983 15.5284 105.331 16.2809 105.672C16.527 105.784 16.738 105.784 16.9841 105.686C18.383 105.143 19.7829 104.593 21.1961 104.077C22.8486 103.478 24.5221 102.942 26.2589 102.608C26.8495 102.497 27.4543 102.442 28.0449 102.365C28.15 102.351 28.2626 102.351 28.3753 102.365C28.5296 102.379 28.7264 102.407 28.699 102.602C28.6848 102.699 28.5163 102.832 28.4103 102.846C27.4326 102.964 26.4908 103.193 25.5698 103.522C23.3058 104.316 21.1336 105.319 18.9954 106.398C18.7427 106.523 18.4966 106.656 18.243 106.788C18.2221 106.802 18.2079 106.83 18.1796 106.857C18.2846 106.941 18.3906 107.024 18.4957 107.107C19.3816 107.804 19.6769 108.786 19.853 109.831C19.9088 110.152 19.7754 110.451 19.5577 110.674C18.9604 111.273 18.383 111.886 17.73 112.415C15.5644 114.156 13.1877 115.597 10.7902 116.991C9.12342 117.959 7.41498 118.857 5.6507 119.651C4.13157 120.334 2.84527 119.972 1.64321 118.989C0.792306 118.286 0.209261 117.415 0.0256396 116.308C-0.0519736 115.807 0.0540347 115.382 0.390989 115.006C1.15766 114.142 2.08523 113.474 3.04877 112.847C6.19873 110.806 9.50296 109.038 12.9132 107.47C13.1385 107.366 13.3562 107.261 13.5739 107.157C13.5739 107.129 13.5739 107.108 13.5805 107.08L13.5729 107.064ZM9.30515 112.678C9.57206 112.615 9.81152 112.587 10.0368 112.511C12.1106 111.857 14.0377 110.902 15.8379 109.704C16.0982 109.53 16.3301 109.3 16.562 109.085C16.7588 108.904 16.7305 108.723 16.527 108.569C16.3301 108.423 16.1266 108.283 15.9363 108.137C15.8029 108.033 15.6836 108.046 15.536 108.13C13.9402 109.063 12.3368 109.969 10.7618 110.93C10.1778 111.285 9.66482 111.758 9.13099 112.191C9.03918 112.26 9.02593 112.42 8.96914 112.538C9.0884 112.587 9.2086 112.636 9.31366 112.678H9.30515Z" fill="#12121D"/>
<path d="M115.32 90.5175C115.433 88.9228 116.002 87.2372 117.155 85.7681C117.282 85.6078 117.436 85.4616 117.592 85.3228C118.112 84.8559 118.717 84.7725 119.349 85.0444C120.446 85.5178 121.297 86.2772 121.888 87.3075C122.035 87.5578 122.099 87.8578 122.183 88.1428C122.253 88.3866 122.141 88.5956 121.972 88.7559C121.466 89.2369 120.945 89.7028 120.446 90.1903C119.786 90.8306 119.111 91.4719 118.484 92.1469C118.133 92.5228 117.964 93.0037 117.922 93.5259C117.894 93.9159 117.676 94.0828 117.296 93.9853C117.057 93.9225 116.811 93.8044 116.621 93.6506C115.736 92.8997 115.299 91.9313 115.32 90.5175Z" fill="#12121D"/>
</g>
<defs>
<linearGradient id="paint0_linear_764_5334" x1="0" y1="36.8395" x2="40.9441" y2="36.8395" gradientUnits="userSpaceOnUse">
<stop stop-color="#6D00ED"/>
<stop offset="0.1857" stop-color="#7609E6"/>
<stop offset="0.4884" stop-color="#8E21D3"/>
<stop offset="0.8684" stop-color="#B648B3"/>
<stop offset="1" stop-color="#C557A7"/>
</linearGradient>
<clipPath id="clip0_764_5334">
<rect width="184" height="120" fill="white"/>
</clipPath>
</defs>
</svg>
