<svg width="24" height="25" viewBox="0 0 24 25" fill="none" xmlns="http://www.w3.org/2000/svg">
<path d="M19 4.5H17.9C17.6679 3.37141 17.0538 2.35735 16.1613 1.62872C15.2687 0.90009 14.1522 0.501455 13 0.5L11 0.5C9.8478 0.501455 8.73132 0.90009 7.83875 1.62872C6.94618 2.35735 6.3321 3.37141 6.1 4.5H5C3.67441 4.50159 2.40356 5.02888 1.46622 5.96622C0.528882 6.90356 0.00158786 8.17441 0 9.5L0 19.5C0.00158786 20.8256 0.528882 22.0964 1.46622 23.0338C2.40356 23.9711 3.67441 24.4984 5 24.5H19C20.3256 24.4984 21.5964 23.9711 22.5338 23.0338C23.4711 22.0964 23.9984 20.8256 24 19.5V9.5C23.9984 8.17441 23.4711 6.90356 22.5338 5.96622C21.5964 5.02888 20.3256 4.50159 19 4.5ZM11 2.5H13C13.6183 2.50256 14.2206 2.69608 14.7247 3.05409C15.2288 3.41209 15.6099 3.91709 15.816 4.5H8.184C8.39008 3.91709 8.77123 3.41209 9.2753 3.05409C9.77937 2.69608 10.3817 2.50256 11 2.5ZM5 6.5H19C19.7956 6.5 20.5587 6.81607 21.1213 7.37868C21.6839 7.94129 22 8.70435 22 9.5V12.5H2V9.5C2 8.70435 2.31607 7.94129 2.87868 7.37868C3.44129 6.81607 4.20435 6.5 5 6.5ZM19 22.5H5C4.20435 22.5 3.44129 22.1839 2.87868 21.6213C2.31607 21.0587 2 20.2956 2 19.5V14.5H11V15.5C11 15.7652 11.1054 16.0196 11.2929 16.2071C11.4804 16.3946 11.7348 16.5 12 16.5C12.2652 16.5 12.5196 16.3946 12.7071 16.2071C12.8946 16.0196 13 15.7652 13 15.5V14.5H22V19.5C22 20.2956 21.6839 21.0587 21.1213 21.6213C20.5587 22.1839 19.7956 22.5 19 22.5Z" fill="#374957"/>
</svg>
