<svg width="21" height="21" viewBox="0 0 21 21" fill="none" xmlns="http://www.w3.org/2000/svg">
<path d="M11.6708 0.436076C11.3494 0.15534 10.9324 0 10.5 0C10.0676 0 9.6506 0.15534 9.32925 0.436076L6.65181 2.77495C2.42511 6.46718 0 11.8057 0 17.418C0 18.1387 0.294999 18.83 0.820101 19.3396C1.3452 19.8493 2.05739 20.1356 2.8 20.1356H3.48938C4.94499 20.1356 6.125 18.9556 6.125 17.5C6.125 16.3738 6.58594 15.2937 7.40641 14.4974C8.22688 13.7011 9.33968 13.2537 10.5 13.2537C11.6603 13.2537 12.7731 13.7011 13.5936 14.4974C14.4141 15.2937 14.875 16.3738 14.875 17.5C14.875 18.9542 16.0539 20.1331 17.5081 20.1331H18.2C18.9426 20.1331 19.6548 19.8468 20.1799 19.3371C20.705 18.8274 21 18.1362 21 17.4154C21 11.8033 18.5745 6.46494 14.3473 2.77343L11.6708 0.436076Z" fill="url(#paint0_linear_1233_4112)"/>
<defs>
<linearGradient id="paint0_linear_1233_4112" x1="0" y1="10.0678" x2="21" y2="10.0678" gradientUnits="userSpaceOnUse">
<stop stop-color="#0470E1"/>
<stop offset="1" stop-color="#9521DC"/>
</linearGradient>
</defs>
</svg>
