<svg width="21" height="22" viewBox="0 0 21 22" fill="none" xmlns="http://www.w3.org/2000/svg">
<path d="M11.0128 2.12136L11.013 2.12149L20 9.96962V18.3476C20 18.7934 19.8178 19.2271 19.4834 19.5517C19.148 19.8773 18.6869 20.0653 18.2 20.0653H15.875V20.0599V20.0536V20.0473V20.041V20.0347V20.0283V20.022V20.0156V20.0093V20.0029V19.9965V19.9901V19.9837V19.9773V19.9709V19.9644V19.958V19.9515V19.945V19.9386V19.9321V19.9256V19.9191V19.9125V19.906V19.8995V19.8929V19.8864V19.8798V19.8733V19.8667V19.8601V19.8535V19.8469V19.8403V19.8336V19.827V19.8204V19.8137V19.807V19.8004V19.7937V19.787V19.7803V19.7736V19.7669V19.7602V19.7535V19.7468V19.74V19.7333V19.7265V19.7198V19.713V19.7063V19.6995V19.6927V19.6859V19.6791V19.6723V19.6655V19.6587V19.6519V19.645V19.6382V19.6314V19.6245V19.6177V19.6108V19.6039V19.5971V19.5902V19.5833V19.5764V19.5695V19.5626V19.5557V19.5488V19.5419V19.535V19.5281V19.5212V19.5142V19.5073V19.5004V19.4934V19.4865V19.4795V19.4726V19.4656V19.4586V19.4517V19.4447V19.4377V19.4308V19.4238V19.4168V19.4098V19.4028V19.3958V19.3888V19.3818V19.3748V19.3678V19.3608V19.3538V19.3468V19.3398V19.3328V19.3257V19.3187V19.3117V19.3047V19.2976V19.2906V19.2836V19.2766V19.2695V19.2625V19.2554V19.2484V19.2414V19.2343V19.2273V19.2202V19.2132V19.2061V19.1991V19.1921V19.185V19.178V19.1709V19.1639V19.1568V19.1498V19.1427V19.1357V19.1286V19.1216V19.1145V19.1075V19.1004V19.0934V19.0863V19.0793V19.0722V19.0652V19.0582V19.0511V19.0441V19.037V19.03V19.023V19.0159V19.0089V19.0019V18.9948V18.9878V18.9808V18.9738V18.9667V18.9597V18.9527V18.9457V18.9387V18.9316V18.9246V18.9176V18.9106V18.9036V18.8966V18.8896V18.8826V18.8757V18.8687V18.8617V18.8547V18.8477V18.8408V18.8338V18.8268V18.8199V18.8129V18.806V18.799V18.7921V18.7851V18.7782V18.7713V18.7643V18.7574V18.7505V18.7436V18.7367V18.7298V18.7229V18.716V18.7091V18.7022V18.6953V18.6885V18.6816V18.6747V18.6679V18.661V18.6542V18.6474V18.6405V18.6337V18.6269V18.6201V18.6133V18.6065V18.5997V18.5929V18.5861V18.5793V18.5726V18.5658V18.559V18.5523V18.5456V18.5388V18.5321V18.5254V18.5187V18.512V18.5053V18.4986V18.4919V18.4853V18.4786V18.4719V18.4653V18.4587V18.452V18.4454V18.4388V18.4322C15.875 17.031 15.3012 15.6934 14.2901 14.712C13.2799 13.7316 11.9161 13.1859 10.5 13.1859C9.08393 13.1859 7.72008 13.7316 6.70993 14.712C5.69877 15.6934 5.125 17.031 5.125 18.4322V20.0678H2.8C2.31314 20.0678 1.85201 19.8798 1.51658 19.5543C1.18216 19.2297 1 18.7959 1 18.3502V9.97208L9.98713 2.12138L9.98716 2.12136C10.1237 2.00211 10.3061 1.93219 10.5 1.93219C10.6939 1.93219 10.8763 2.00211 11.0128 2.12136Z" stroke="#374957" stroke-width="2"/>
</svg>
