<svg width="24" height="24" viewBox="0 0 24 24" fill="none" xmlns="http://www.w3.org/2000/svg">
<path fill-rule="evenodd" clip-rule="evenodd" d="M3 20.25V10.5H4.5V20.25C4.5 20.4489 4.57902 20.6397 4.71967 20.7803C4.86032 20.921 5.05109 21 5.25 21H18.75C18.9489 21 19.1397 20.921 19.2803 20.7803C19.421 20.6397 19.5 20.4489 19.5 20.25V10.5H21V20.25C21 20.8467 20.7629 21.419 20.341 21.841C19.919 22.2629 19.3467 22.5 18.75 22.5H5.25C4.65326 22.5 4.08097 22.2629 3.65901 21.841C3.23705 21.419 3 20.8467 3 20.25ZM19.5 3.75V9L16.5 6V3.75C16.5 3.55109 16.579 3.36032 16.7197 3.21967C16.8603 3.07902 17.0511 3 17.25 3H18.75C18.9489 3 19.1397 3.07902 19.2803 3.21967C19.421 3.36032 19.5 3.55109 19.5 3.75Z" fill="#6F01EC"/>
<path fill-rule="evenodd" clip-rule="evenodd" d="M11.1904 2.43918C11.4717 2.15797 11.8532 2 12.2509 2C12.6487 2 13.0302 2.15797 13.3114 2.43918L23.2819 12.4082C23.4228 12.549 23.5019 12.74 23.5019 12.9392C23.5019 13.1383 23.4228 13.3293 23.2819 13.4702C23.1411 13.611 22.9501 13.6901 22.7509 13.6901C22.5518 13.6901 22.3608 13.611 22.2199 13.4702L12.2509 3.49968L2.28195 13.4702C2.14112 13.611 1.95011 13.6901 1.75095 13.6901C1.55178 13.6901 1.36078 13.611 1.21995 13.4702C1.07912 13.3293 1 13.1383 1 12.9392C1 12.74 1.07912 12.549 1.21995 12.4082L11.1904 2.43918Z" fill="#6F01EC"/>
</svg>
