<svg width="24" height="24" viewBox="0 0 24 24" fill="none" xmlns="http://www.w3.org/2000/svg">
<path d="M8 15.75C8 15.5511 8.07902 15.3603 8.21967 15.2197C8.36032 15.079 8.55109 15 8.75 15H11.75C11.9489 15 12.1397 15.079 12.2803 15.2197C12.421 15.3603 12.5 15.5511 12.5 15.75C12.5 15.9489 12.421 16.1397 12.2803 16.2803C12.1397 16.421 11.9489 16.5 11.75 16.5H8.75C8.55109 16.5 8.36032 16.421 8.21967 16.2803C8.07902 16.1397 8 15.9489 8 15.75ZM8 12.75C8 12.5511 8.07902 12.3603 8.21967 12.2197C8.36032 12.079 8.55109 12 8.75 12H16.25C16.4489 12 16.6397 12.079 16.7803 12.2197C16.921 12.3603 17 12.5511 17 12.75C17 12.9489 16.921 13.1397 16.7803 13.2803C16.6397 13.421 16.4489 13.5 16.25 13.5H8.75C8.55109 13.5 8.36032 13.421 8.21967 13.2803C8.07902 13.1397 8 12.9489 8 12.75ZM8 9.75C8 9.55109 8.07902 9.36032 8.21967 9.21967C8.36032 9.07902 8.55109 9 8.75 9H16.25C16.4489 9 16.6397 9.07902 16.7803 9.21967C16.921 9.36032 17 9.55109 17 9.75C17 9.94891 16.921 10.1397 16.7803 10.2803C16.6397 10.421 16.4489 10.5 16.25 10.5H8.75C8.55109 10.5 8.36032 10.421 8.21967 10.2803C8.07902 10.1397 8 9.94891 8 9.75ZM8 6.75C8 6.55109 8.07902 6.36032 8.21967 6.21967C8.36032 6.07902 8.55109 6 8.75 6H16.25C16.4489 6 16.6397 6.07902 16.7803 6.21967C16.921 6.36032 17 6.55109 17 6.75C17 6.94891 16.921 7.13968 16.7803 7.28033C16.6397 7.42098 16.4489 7.5 16.25 7.5H8.75C8.55109 7.5 8.36032 7.42098 8.21967 7.28033C8.07902 7.13968 8 6.94891 8 6.75Z" fill="black"/>
<path d="M5 0H20C20.7956 0 21.5587 0.316071 22.1213 0.87868C22.6839 1.44129 23 2.20435 23 3V21C23 21.7956 22.6839 22.5587 22.1213 23.1213C21.5587 23.6839 20.7956 24 20 24H5C4.20435 24 3.44129 23.6839 2.87868 23.1213C2.31607 22.5587 2 21.7956 2 21V19.5H3.5V21C3.5 21.3978 3.65804 21.7794 3.93934 22.0607C4.22064 22.342 4.60218 22.5 5 22.5H20C20.3978 22.5 20.7794 22.342 21.0607 22.0607C21.342 21.7794 21.5 21.3978 21.5 21V3C21.5 2.60218 21.342 2.22064 21.0607 1.93934C20.7794 1.65804 20.3978 1.5 20 1.5H5C4.60218 1.5 4.22064 1.65804 3.93934 1.93934C3.65804 2.22064 3.5 2.60218 3.5 3V4.5H2V3C2 2.20435 2.31607 1.44129 2.87868 0.87868C3.44129 0.316071 4.20435 0 5 0V0Z" fill="black"/>
<path d="M1.5 7.5V6.75C1.5 6.55109 1.57902 6.36032 1.71967 6.21967C1.86032 6.07902 2.05109 6 2.25 6C2.44891 6 2.63968 6.07902 2.78033 6.21967C2.92098 6.36032 3 6.55109 3 6.75V7.5H3.75C3.94891 7.5 4.13968 7.57902 4.28033 7.71967C4.42098 7.86032 4.5 8.05109 4.5 8.25C4.5 8.44891 4.42098 8.63968 4.28033 8.78033C4.13968 8.92098 3.94891 9 3.75 9H0.75C0.551088 9 0.360322 8.92098 0.21967 8.78033C0.0790176 8.63968 0 8.44891 0 8.25C0 8.05109 0.0790176 7.86032 0.21967 7.71967C0.360322 7.57902 0.551088 7.5 0.75 7.5H1.5ZM1.5 12V11.25C1.5 11.0511 1.57902 10.8603 1.71967 10.7197C1.86032 10.579 2.05109 10.5 2.25 10.5C2.44891 10.5 2.63968 10.579 2.78033 10.7197C2.92098 10.8603 3 11.0511 3 11.25V12H3.75C3.94891 12 4.13968 12.079 4.28033 12.2197C4.42098 12.3603 4.5 12.5511 4.5 12.75C4.5 12.9489 4.42098 13.1397 4.28033 13.2803C4.13968 13.421 3.94891 13.5 3.75 13.5H0.75C0.551088 13.5 0.360322 13.421 0.21967 13.2803C0.0790176 13.1397 0 12.9489 0 12.75C0 12.5511 0.0790176 12.3603 0.21967 12.2197C0.360322 12.079 0.551088 12 0.75 12H1.5ZM1.5 16.5V15.75C1.5 15.5511 1.57902 15.3603 1.71967 15.2197C1.86032 15.079 2.05109 15 2.25 15C2.44891 15 2.63968 15.079 2.78033 15.2197C2.92098 15.3603 3 15.5511 3 15.75V16.5H3.75C3.94891 16.5 4.13968 16.579 4.28033 16.7197C4.42098 16.8603 4.5 17.0511 4.5 17.25C4.5 17.4489 4.42098 17.6397 4.28033 17.7803C4.13968 17.921 3.94891 18 3.75 18H0.75C0.551088 18 0.360322 17.921 0.21967 17.7803C0.0790176 17.6397 0 17.4489 0 17.25C0 17.0511 0.0790176 16.8603 0.21967 16.7197C0.360322 16.579 0.551088 16.5 0.75 16.5H1.5Z" fill="black"/>
</svg>
