<svg width="151" height="83" viewBox="0 0 151 83" fill="none" xmlns="http://www.w3.org/2000/svg">
<path d="M16.2716 72.4652L13.5812 72.9374C13.4852 72.6541 13.317 72.3813 13.0768 72.119C12.8446 71.8515 12.4843 71.6338 11.9958 71.4659C11.5154 71.2928 10.8588 71.2062 10.0261 71.2062C8.89709 71.2062 7.91621 71.3767 7.08348 71.7177C6.25074 72.0534 5.77431 72.481 5.65421 73.0003C5.5341 73.4567 5.69424 73.8213 6.13463 74.0941C6.57502 74.3669 7.31168 74.5898 8.3446 74.7629L10.9869 75.2036C12.5724 75.4711 13.7014 75.8724 14.374 76.4075C15.0546 76.9374 15.2868 77.6272 15.0706 78.477C14.8944 79.1695 14.434 79.7885 13.6893 80.3341C12.9447 80.8796 11.9918 81.3098 10.8308 81.6246C9.66977 81.9393 8.37662 82.0967 6.95136 82.0967C5.05367 82.0967 3.55634 81.8291 2.45937 81.2941C1.36239 80.7537 0.777875 79.9721 0.705811 78.9492L3.54033 78.5085C3.61239 79.1537 3.96471 79.6416 4.59727 79.9721C5.23784 80.2973 6.13463 80.46 7.28766 80.46C8.60883 80.46 9.70981 80.2764 10.5906 79.9092C11.4714 79.5367 11.9718 79.0908 12.0919 78.5714C12.212 78.1465 12.0839 77.7924 11.7076 77.5092C11.3393 77.2259 10.6987 77.0134 9.78588 76.8718L6.85527 76.3997C5.22182 76.1321 4.0768 75.7229 3.42022 75.1721C2.77165 74.6213 2.55545 73.9288 2.77165 73.0947C2.9478 72.4128 3.3962 71.8095 4.11684 71.2849C4.84549 70.7603 5.7583 70.3485 6.85527 70.0495C7.96025 69.7505 9.16132 69.601 10.4585 69.601C12.2841 69.601 13.6493 69.8633 14.5541 70.3879C15.4589 70.9072 16.0314 71.5997 16.2716 72.4652Z" fill="#333333"/>
<path d="M35.6584 69.7584L35.2741 71.3321H25.7136L26.0979 69.7584H35.6584ZM29.605 66.8626H32.4396L29.509 78.3826C29.3808 78.9072 29.4009 79.3006 29.569 79.5629C29.7452 79.82 30.0094 79.9931 30.3617 80.0823C30.722 80.1662 31.1104 80.2082 31.5268 80.2082C31.839 80.2082 32.0953 80.1977 32.2954 80.1767C32.4956 80.1505 32.6558 80.1295 32.7759 80.1137L32.968 81.7819C32.7518 81.8291 32.4596 81.8764 32.0913 81.9236C31.7309 81.976 31.2865 82.0023 30.7581 82.0023C29.9574 82.0023 29.2047 81.8895 28.5001 81.6639C27.7954 81.4383 27.255 81.0947 26.8786 80.6331C26.5023 80.1714 26.4022 79.5892 26.5784 78.8862L29.605 66.8626Z" fill="#333333"/>
<path d="M50.352 82.0967C48.6545 82.0967 47.2333 81.8318 46.0882 81.3019C44.9432 80.7721 44.1345 80.0298 43.6621 79.0751C43.1977 78.1203 43.1216 77.0082 43.4339 75.7387C43.7382 74.5006 44.3427 73.4226 45.2475 72.5046C46.1603 71.5813 47.2933 70.8679 48.6465 70.3643C50.0077 69.8554 51.5051 69.601 53.1385 69.601C54.836 69.601 56.2533 69.8685 57.3903 70.4036C58.5353 70.9334 59.344 71.6783 59.8164 72.6383C60.2889 73.5931 60.3689 74.7105 60.0567 75.9905C59.7524 77.218 59.1398 78.2908 58.219 79.2088C57.3062 80.1216 56.1732 80.8324 54.82 81.3413C53.4748 81.8449 51.9855 82.0967 50.352 82.0967ZM50.4001 80.4285C51.6972 80.4285 52.8222 80.2108 53.7751 79.7754C54.7359 79.34 55.5126 78.7655 56.1051 78.0521C56.7057 77.3387 57.11 76.5675 57.3182 75.7387C57.5104 74.9518 57.5024 74.22 57.2942 73.5433C57.086 72.8613 56.6416 72.3131 55.961 71.8987C55.2804 71.479 54.3236 71.2692 53.0905 71.2692C51.7933 71.2692 50.6603 71.4895 49.6914 71.9302C48.7306 72.3708 47.9539 72.9505 47.3614 73.6692C46.7688 74.3879 46.3725 75.1616 46.1723 75.9905C45.9801 76.7774 45.9841 77.5092 46.1843 78.1859C46.3925 78.8574 46.8369 79.4003 47.5175 79.8147C48.2061 80.2239 49.167 80.4285 50.4001 80.4285Z" fill="#333333"/>
<path d="M69.0062 81.8449L72.0809 69.7584H74.8193L74.3389 71.5839H74.5311C75.0115 70.9859 75.7441 70.5006 76.729 70.1282C77.7139 69.7557 78.7588 69.5695 79.8638 69.5695C80.08 69.5695 80.3402 69.5721 80.6445 69.5774C80.9488 69.5774 81.185 69.5852 81.3531 69.601L80.8727 71.4895C80.7766 71.4738 80.5604 71.4502 80.2241 71.4187C79.8878 71.382 79.5275 71.3636 79.1432 71.3636C78.2464 71.3636 77.4176 71.4869 76.657 71.7334C75.8963 71.9747 75.2597 72.3105 74.7473 72.7406C74.2348 73.1656 73.9065 73.6508 73.7624 74.1964L71.8407 81.8449H69.0062Z" fill="#333333"/>
<path d="M87.7444 81.8449L90.8191 69.7584H93.6536L90.5789 81.8449H87.7444ZM93.1011 67.7125C92.5486 67.7125 92.0722 67.5892 91.6719 67.3426C91.2795 67.0961 91.0833 66.7997 91.0833 66.4534C91.0833 66.1072 91.2795 65.8108 91.6719 65.5643C92.0722 65.3177 92.5486 65.1944 93.1011 65.1944C93.6536 65.1944 94.126 65.3177 94.5184 65.5643C94.9187 65.8108 95.1189 66.1072 95.1189 66.4534C95.1189 66.7997 94.9187 67.0961 94.5184 67.3426C94.126 67.5892 93.6536 67.7125 93.1011 67.7125Z" fill="#333333"/>
<path d="M109.545 82.0967C107.776 82.0967 106.314 81.8396 105.161 81.3255C104.008 80.8062 103.204 80.0823 102.747 79.1537C102.291 78.22 102.219 77.1341 102.531 75.896C102.843 74.658 103.464 73.5669 104.393 72.6226C105.322 71.6731 106.479 70.9334 107.864 70.4036C109.249 69.8685 110.77 69.601 112.428 69.601C113.389 69.601 114.314 69.7059 115.202 69.9157C116.091 70.1256 116.86 70.4665 117.508 70.9387C118.157 71.4056 118.609 72.0246 118.866 72.7957C119.122 73.5669 119.106 74.5164 118.818 75.6442L118.625 76.4311H104.405L104.789 74.8259H116.127C116.311 74.1439 116.263 73.5354 115.983 73.0003C115.711 72.4652 115.234 72.0429 114.554 71.7334C113.881 71.4239 113.028 71.2692 111.995 71.2692C110.931 71.2692 109.938 71.458 109.017 71.8357C108.096 72.2082 107.327 72.6803 106.711 73.2521C106.094 73.8187 105.71 74.3957 105.558 74.9833L105.221 76.3682C104.981 77.3701 105.017 78.1675 105.33 78.7603C105.65 79.3531 106.206 79.7806 106.999 80.0429C107.792 80.3 108.785 80.4285 109.978 80.4285C110.738 80.4285 111.439 80.3603 112.08 80.2239C112.72 80.0823 113.293 79.8724 113.797 79.5944C114.302 79.3111 114.726 78.9596 115.07 78.54L117.664 79.0436C117.224 79.6521 116.604 80.1872 115.803 80.6488C115.01 81.1052 114.081 81.4619 113.016 81.719C111.959 81.9708 110.802 82.0967 109.545 82.0967Z" fill="#333333"/>
<path d="M143.168 72.4652L140.477 72.9374C140.381 72.6541 140.213 72.3813 139.973 72.119C139.741 71.8515 139.38 71.6338 138.892 71.4659C138.411 71.2928 137.755 71.2062 136.922 71.2062C135.793 71.2062 134.812 71.3767 133.98 71.7177C133.147 72.0534 132.67 72.481 132.55 73.0003C132.43 73.4567 132.59 73.8213 133.031 74.0941C133.471 74.3669 134.208 74.5898 135.241 74.7629L137.883 75.2036C139.468 75.4711 140.597 75.8724 141.27 76.4075C141.951 76.9374 142.183 77.6272 141.967 78.477C141.79 79.1695 141.33 79.7885 140.585 80.3341C139.841 80.8796 138.888 81.3098 137.727 81.6246C136.566 81.9393 135.273 82.0967 133.847 82.0967C131.95 82.0967 130.452 81.8291 129.355 81.2941C128.258 80.7537 127.674 79.9721 127.602 78.9492L130.436 78.5085C130.508 79.1537 130.861 79.6416 131.493 79.9721C132.134 80.2973 133.031 80.46 134.184 80.46C135.505 80.46 136.606 80.2764 137.487 79.9092C138.367 79.5367 138.868 79.0908 138.988 78.5714C139.108 78.1465 138.98 77.7924 138.604 77.5092C138.235 77.2259 137.595 77.0134 136.682 76.8718L133.751 76.3997C132.118 76.1321 130.973 75.7229 130.316 75.1721C129.668 74.6213 129.452 73.9288 129.668 73.0947C129.844 72.4128 130.292 71.8095 131.013 71.2849C131.742 70.7603 132.654 70.3485 133.751 70.0495C134.856 69.7505 136.057 69.601 137.355 69.601C139.18 69.601 140.545 69.8633 141.45 70.3879C142.355 70.9072 142.927 71.5997 143.168 72.4652Z" fill="#333333"/>
<path d="M34.0184 33.874V26.6235H7.95622V20.4428H34.0184V13.1916H0.705811V47.3305H34.0184V40.0794H7.95622V33.874H34.0184Z" fill="url(#paint0_linear_653_5437)"/>
<path d="M62.2839 56.5308C59.8848 53.9639 58.6855 50.3385 58.686 45.6548V14.8674C58.686 10.1821 59.8853 6.55679 62.2839 3.99136C64.6825 1.42593 68.1404 0.14244 72.6578 0.1409C77.1757 0.1409 80.6339 1.42439 83.0325 3.99136C85.431 6.55833 86.6301 10.1837 86.6296 14.8674V45.6548C86.6296 50.3401 85.4305 53.9654 83.0325 56.5308C80.6344 59.0963 77.1762 60.3797 72.6578 60.3813C68.1404 60.3803 64.6825 59.0968 62.2839 56.5308ZM77.427 46.2401V14.2813C77.427 10.4309 75.8372 8.50563 72.6578 8.50563C69.4783 8.50563 67.8889 10.4309 67.8894 14.2813V46.2401C67.8894 50.0906 69.4789 52.0158 72.6578 52.0158C75.8367 52.0158 77.4265 50.0906 77.427 46.2401Z" fill="#333333"/>
<path d="M91.8716 0.142517H101.338V51.7741H116.913V60.3798H91.8716V0.142517Z" fill="#333333"/>
<path d="M121.841 0.142517H136.297C141.001 0.142517 144.529 1.4047 146.882 3.92906C149.234 6.45341 150.411 10.1537 150.412 15.0299V45.4924C150.412 50.3697 149.236 54.07 146.883 56.5933C144.531 59.1166 141.003 60.3788 136.299 60.3798H121.841V0.142517ZM136.126 51.7741C137.676 51.7741 138.866 51.3151 139.698 50.3971C140.53 49.4792 140.946 47.9878 140.946 45.9229V14.5994C140.946 12.5346 140.53 11.0429 139.698 10.1244C138.866 9.20598 137.676 8.74726 136.126 8.74829H131.308V51.7741H136.126Z" fill="#333333"/>
<path d="M54.355 17.096V16.8088C54.355 7.53842 46.8166 0 37.5501 0H0.705811V7.25041H37.5501C40.0832 7.25306 42.5118 8.26057 44.3029 10.0518C46.094 11.8431 47.1014 14.2718 47.1038 16.8049V17.096C47.1003 19.5368 46.1638 21.884 44.4862 23.6569C42.8086 25.4299 40.5168 26.4945 38.0799 26.6328C37.9035 26.6274 37.7272 26.6236 37.5501 26.6236H34.0184V33.8986H37.5501C37.7272 33.8986 37.9035 33.8948 38.0799 33.8894C40.518 34.0278 42.8108 35.0934 44.4886 36.8678C46.1664 38.6422 47.102 40.9911 47.1038 43.4331V43.7212C47.1003 46.2535 46.0926 48.6812 44.3015 50.4715C42.5105 52.2618 40.0825 53.2686 37.5501 53.2711H0.705811V60.5238H37.5501C46.8166 60.5238 54.355 52.9838 54.355 43.7173V43.4331C54.3549 40.8993 53.7813 38.3984 52.6772 36.1178C51.573 33.8372 49.967 31.8361 47.9794 30.2646C49.967 28.693 51.573 26.692 52.6772 24.4114C53.7813 22.1308 54.3549 19.6298 54.355 17.096Z" fill="#333333"/>
<defs>
<linearGradient id="paint0_linear_653_5437" x1="7.77212" y1="19.916" x2="29.7733" y2="33.3963" gradientUnits="userSpaceOnUse">
<stop stop-color="#6D2AE3"/>
<stop offset="1" stop-color="#DE84B2"/>
</linearGradient>
</defs>
</svg>
