<svg width="214" height="82" viewBox="0 0 214 82" fill="none" xmlns="http://www.w3.org/2000/svg">
<path d="M18.2708 78V68.06H22.3868C22.8161 68.06 23.2081 68.1487 23.5628 68.326C23.9268 68.5033 24.2394 68.746 24.5008 69.054C24.7621 69.3527 24.9674 69.6887 25.1168 70.062C25.2661 70.426 25.3408 70.7993 25.3408 71.182C25.3408 71.7233 25.2194 72.2367 24.9768 72.722C24.7434 73.198 24.4121 73.5853 23.9828 73.884C23.5534 74.1827 23.0494 74.332 22.4708 74.332H19.2508V78H18.2708ZM19.2508 73.464H22.4288C22.8208 73.464 23.1614 73.3567 23.4508 73.142C23.7401 72.9273 23.9641 72.6473 24.1228 72.302C24.2814 71.9567 24.3608 71.5833 24.3608 71.182C24.3608 70.7713 24.2674 70.3933 24.0808 70.048C23.8941 69.7027 23.6468 69.432 23.3388 69.236C23.0401 69.0307 22.7088 68.928 22.3448 68.928H19.2508V73.464ZM42.9397 78V68.06H47.1397C47.5691 68.06 47.9611 68.1487 48.3157 68.326C48.6704 68.5033 48.9784 68.746 49.2397 69.054C49.5104 69.3527 49.7157 69.6887 49.8557 70.062C50.0051 70.426 50.0797 70.7993 50.0797 71.182C50.0797 71.658 49.9864 72.106 49.7997 72.526C49.6224 72.946 49.3657 73.3007 49.0297 73.59C48.7031 73.8793 48.3157 74.0707 47.8677 74.164L50.3037 78H49.1977L46.8597 74.332H43.9197V78H42.9397ZM43.9197 73.464H47.1677C47.5597 73.464 47.9004 73.3567 48.1897 73.142C48.4791 72.9273 48.7031 72.6473 48.8617 72.302C49.0204 71.9473 49.0997 71.574 49.0997 71.182C49.0997 70.7807 49.0064 70.412 48.8197 70.076C48.6424 69.7307 48.3997 69.4553 48.0917 69.25C47.7931 69.0353 47.4571 68.928 47.0837 68.928H43.9197V73.464ZM74.7242 77.132V78H68.0462V68.06H74.5982V68.928H69.0262V72.512H73.8842V73.338H69.0262V77.132H74.7242ZM98.2928 69.922C98.1528 69.7633 97.9895 69.6233 97.8028 69.502C97.6161 69.3713 97.4061 69.2593 97.1728 69.166C96.9395 69.0727 96.6875 68.998 96.4168 68.942C96.1555 68.886 95.8755 68.858 95.5768 68.858C94.7088 68.858 94.0695 69.026 93.6588 69.362C93.2575 69.6887 93.0568 70.1367 93.0568 70.706C93.0568 71.098 93.1501 71.406 93.3368 71.63C93.5328 71.854 93.8361 72.036 94.2468 72.176C94.6575 72.316 95.1801 72.4607 95.8148 72.61C96.5241 72.7593 97.1355 72.9367 97.6488 73.142C98.1621 73.3473 98.5588 73.6273 98.8388 73.982C99.1188 74.3273 99.2588 74.7987 99.2588 75.396C99.2588 75.8533 99.1701 76.25 98.9928 76.586C98.8155 76.922 98.5681 77.202 98.2508 77.426C97.9335 77.65 97.5555 77.818 97.1168 77.93C96.6781 78.0327 96.1975 78.084 95.6748 78.084C95.1615 78.084 94.6668 78.0327 94.1908 77.93C93.7241 77.818 93.2808 77.6593 92.8608 77.454C92.4408 77.2393 92.0488 76.9687 91.6848 76.642L92.1748 75.844C92.3521 76.0307 92.5621 76.208 92.8048 76.376C93.0568 76.5347 93.3321 76.6793 93.6308 76.81C93.9388 76.9407 94.2655 77.0433 94.6108 77.118C94.9655 77.1833 95.3295 77.216 95.7028 77.216C96.4961 77.216 97.1121 77.0713 97.5508 76.782C97.9988 76.4927 98.2228 76.0633 98.2228 75.494C98.2228 75.0833 98.1108 74.7567 97.8868 74.514C97.6628 74.262 97.3268 74.0567 96.8788 73.898C96.4308 73.7393 95.8801 73.5853 95.2268 73.436C94.5361 73.2773 93.9528 73.1 93.4768 72.904C93.0008 72.708 92.6415 72.4513 92.3988 72.134C92.1655 71.8073 92.0488 71.378 92.0488 70.846C92.0488 70.23 92.1981 69.712 92.4968 69.292C92.8048 68.8627 93.2248 68.5407 93.7568 68.326C94.2888 68.102 94.9001 67.99 95.5908 67.99C96.0295 67.99 96.4355 68.0367 96.8088 68.13C97.1915 68.214 97.5415 68.34 97.8588 68.508C98.1855 68.676 98.4888 68.886 98.7688 69.138L98.2928 69.922ZM123.625 77.132V78H116.947V68.06H123.499V68.928H117.927V72.512H122.785V73.338H117.927V77.132H123.625ZM142.418 69.866V78H141.438V68.06H142.25L148.774 76.348V68.074H149.754V78H148.844L142.418 69.866ZM175.268 68.928H171.726V78H170.746V68.928H167.204V68.06H175.268V68.928ZM198.527 69.922C198.387 69.7633 198.224 69.6233 198.037 69.502C197.851 69.3713 197.641 69.2593 197.407 69.166C197.174 69.0727 196.922 68.998 196.651 68.942C196.39 68.886 196.11 68.858 195.811 68.858C194.943 68.858 194.304 69.026 193.893 69.362C193.492 69.6887 193.291 70.1367 193.291 70.706C193.291 71.098 193.385 71.406 193.571 71.63C193.767 71.854 194.071 72.036 194.481 72.176C194.892 72.316 195.415 72.4607 196.049 72.61C196.759 72.7593 197.37 72.9367 197.883 73.142C198.397 73.3473 198.793 73.6273 199.073 73.982C199.353 74.3273 199.493 74.7987 199.493 75.396C199.493 75.8533 199.405 76.25 199.227 76.586C199.05 76.922 198.803 77.202 198.485 77.426C198.168 77.65 197.79 77.818 197.351 77.93C196.913 78.0327 196.432 78.084 195.909 78.084C195.396 78.084 194.901 78.0327 194.425 77.93C193.959 77.818 193.515 77.6593 193.095 77.454C192.675 77.2393 192.283 76.9687 191.919 76.642L192.409 75.844C192.587 76.0307 192.797 76.208 193.039 76.376C193.291 76.5347 193.567 76.6793 193.865 76.81C194.173 76.9407 194.5 77.0433 194.845 77.118C195.2 77.1833 195.564 77.216 195.937 77.216C196.731 77.216 197.347 77.0713 197.785 76.782C198.233 76.4927 198.457 76.0633 198.457 75.494C198.457 75.0833 198.345 74.7567 198.121 74.514C197.897 74.262 197.561 74.0567 197.113 73.898C196.665 73.7393 196.115 73.5853 195.461 73.436C194.771 73.2773 194.187 73.1 193.711 72.904C193.235 72.708 192.876 72.4513 192.633 72.134C192.4 71.8073 192.283 71.378 192.283 70.846C192.283 70.23 192.433 69.712 192.731 69.292C193.039 68.8627 193.459 68.5407 193.991 68.326C194.523 68.102 195.135 67.99 195.825 67.99C196.264 67.99 196.67 68.0367 197.043 68.13C197.426 68.214 197.776 68.34 198.093 68.508C198.42 68.676 198.723 68.886 199.003 69.138L198.527 69.922Z" fill="black"/>
<path fill-rule="evenodd" clip-rule="evenodd" d="M27.699 45.5801L35.458 32.2376H30.2019L32.7883 27.7625H45.0526L42.4662 32.2376H38.0444L30.2019 45.7459C38.9621 45.7459 46.0537 38.6188 46.0537 30C46.0537 21.3812 38.8787 14.2542 30.2019 14.2542C29.5345 14.2542 28.9504 14.2542 28.3664 14.337L20.6074 27.6796H30.2853L27.699 32.1547H15.3512L25.3629 15C19.0222 17.0719 14.35 22.9558 14.35 29.9172C14.35 37.7901 20.1068 44.337 27.699 45.5801ZM30.2019 12.0166C40.1302 12.0166 48.3064 20.0553 48.3064 30C48.3064 39.9448 40.1302 47.9835 30.2019 47.9835C20.1902 47.9835 12.0974 39.8619 12.0974 30C12.0974 20.0553 20.1902 12.0166 30.2019 12.0166Z" fill="#12121D"/>
<path d="M192.558 31.0774C193.226 29.2542 194.143 27.9282 196.313 27.9282C197.731 27.9282 198.482 28.757 198.482 30.1658C198.482 30.4973 198.482 30.7459 198.398 31.0774H192.558ZM201.485 33.3978C201.652 32.4034 201.819 31.4089 201.819 30.4144C201.819 27.0166 199.65 25.3592 196.313 25.3592C191.891 25.3592 188.72 29.3371 188.72 33.4807C188.72 37.4586 191.307 39.2818 195.145 39.2818C196.563 39.2818 198.065 38.9503 199.4 38.536L199.817 35.8012C198.482 36.3813 197.147 36.7956 195.729 36.7956C193.309 36.7956 192.058 35.884 192.058 33.4807H201.485V33.3978ZM178.125 31.0774C178.792 29.2542 179.71 27.9282 181.879 27.9282C183.297 27.9282 184.048 28.757 184.048 30.1658C184.048 30.4973 184.048 30.7459 183.965 31.0774H178.125ZM187.135 33.3978C187.302 32.4034 187.469 31.4089 187.469 30.4144C187.469 27.0166 185.3 25.3592 181.963 25.3592C177.541 25.3592 174.37 29.3371 174.37 33.4807C174.37 37.4586 176.957 39.2818 180.795 39.2818C182.213 39.2818 183.715 38.9503 185.05 38.536L185.467 35.8012C184.132 36.3813 182.797 36.7956 181.379 36.7956C178.959 36.7956 177.708 35.884 177.708 33.4807H187.135V33.3978ZM164.025 38.9503H167.529L168.781 32.9835C169.198 30.8288 170.449 28.6741 172.869 28.6741C173.286 28.6741 173.786 28.757 174.204 28.8398L174.954 25.442C174.537 25.3592 174.037 25.2763 173.619 25.2763C172.034 25.2763 170.282 26.6023 169.698 28.094H169.615L170.115 25.6078H166.778C166.695 26.1879 166.611 26.8509 166.444 27.3481L164.025 38.9503ZM154.764 28.2597H157.267L156.266 32.7349C156.016 33.8122 155.849 34.8067 155.849 35.8012C155.849 38.3702 157.517 39.2818 159.853 39.2818C160.437 39.2818 161.105 39.1161 161.689 38.9503L162.273 36.2984C161.856 36.4641 161.188 36.6299 160.604 36.6299C159.853 36.6299 159.269 36.1326 159.269 35.3039C159.269 34.8067 159.353 34.3094 159.436 33.9779L160.688 28.1768H163.775L164.359 25.6907H161.272L162.106 21.7128L158.352 22.9558L157.768 25.6907H155.265L154.764 28.2597ZM145.837 28.094C147.589 28.094 148.34 29.6686 148.34 31.2431C148.34 33.7293 146.838 36.6299 144.252 36.6299C142.5 36.6299 142.166 34.8067 142.166 33.4807C142.166 31.4918 143.334 28.094 145.837 28.094ZM151.093 19.6409L149.425 27.2652C148.34 26.0221 147.005 25.3592 145.336 25.3592C140.831 25.3592 138.579 29.7514 138.579 33.7293C138.579 36.6299 139.997 39.2818 143.167 39.2818C145.17 39.2818 146.504 38.4531 147.506 37.0442H147.589L147.255 39.0332H150.509C150.593 38.3702 150.759 37.21 151.01 36.1326L154.597 19.7238H151.093V19.6409ZM122.226 38.9503H125.73L127.149 32.2376C127.566 30.2487 128.483 28.0111 130.903 28.0111C131.988 28.0111 132.822 28.757 132.822 29.8343C132.822 30.8288 132.655 31.7404 132.405 32.652L131.07 38.9503H134.574L135.992 32.4862C136.159 31.6575 136.409 30.5802 136.409 29.5857C136.409 26.9337 134.657 25.3592 132.071 25.3592C130.569 25.3592 129.234 26.105 128.317 26.9337H128.233L128.483 25.6078H125.063C124.979 26.0221 124.896 26.6851 124.729 27.5139L122.226 38.9503ZM118.388 23.2873H121.892L122.643 19.9724H119.139L118.388 23.2873ZM114.968 38.9503H118.472L121.308 25.6907H117.804L114.968 38.9503ZM90.7727 38.9503H94.1934L97.5306 24.0332H97.614L99.0324 38.9503H102.536L110.713 24.0332H110.796L107.375 38.9503H111.213L115.051 20.9669H109.044L101.869 33.9779H101.786L100.534 21.0498H94.5271L90.7727 38.9503ZM83.1805 38.9503H86.9349L90.7727 20.9669H87.0183L83.1805 38.9503ZM70.499 23.8674H75.5883L72.3345 38.9503H76.0889L79.3427 23.7846H84.432L85.016 20.9669H71.1665L70.499 23.8674ZM57.4004 38.9503H68.0795L68.6635 36.1326H61.5719L64.8257 20.9669H61.1548L57.4004 38.9503Z" fill="#12121D"/>
</svg>
