<svg width="30" height="29" viewBox="0 0 30 29" fill="none" xmlns="http://www.w3.org/2000/svg">
<path d="M27.0607 12.6149L25.8766 17.6657C24.8616 22.0278 22.8557 23.7919 19.0857 23.4294C18.4816 23.3811 17.8291 23.2724 17.1282 23.1032L15.0982 22.6199C10.0595 21.4236 8.50074 18.9344 9.6849 13.8836L10.8691 8.8207C11.1107 7.79362 11.4007 6.89945 11.7632 6.16237C13.177 3.2382 15.5816 2.45278 19.6174 3.40737L21.6353 3.87862C26.6982 5.06278 28.2449 7.56403 27.0607 12.6149Z" stroke="#3D4754" stroke-linecap="round" stroke-linejoin="round"/>
<path d="M19.0868 23.4297C18.3377 23.9372 17.3952 24.3601 16.2472 24.7347L14.3381 25.363C9.54099 26.9097 7.01558 25.6168 5.45683 20.8197L3.91016 16.0468C2.36349 11.2497 3.64433 8.71218 8.44141 7.16551L10.3506 6.53718C10.846 6.3801 11.3172 6.24718 11.7643 6.1626C11.4018 6.89968 11.1118 7.79385 10.8702 8.82093L9.68599 13.8838C8.50183 18.9347 10.0606 21.4238 15.0993 22.6201L17.1293 23.1034C17.8302 23.2726 18.4827 23.3813 19.0868 23.4297Z" stroke="#3D4754" stroke-linecap="round" stroke-linejoin="round"/>
<path d="M16.1621 10.3071L22.0225 11.7934" stroke="#3D4754" stroke-linecap="round" stroke-linejoin="round"/>
<path d="M14.9785 14.9834L18.4827 15.8776" stroke="#3D4754" stroke-linecap="round" stroke-linejoin="round"/>
</svg>
