<svg width="24" height="25" viewBox="0 0 24 25" fill="none" xmlns="http://www.w3.org/2000/svg">
<path d="M12.02 21.18C9.68999 21.18 7.35999 20.81 5.14999 20.07C4.30999 19.78 3.66999 19.19 3.38999 18.42C3.09999 17.65 3.19999 16.8 3.65999 16.04L4.80999 14.13C5.04999 13.73 5.26999 12.93 5.26999 12.46V9.57001C5.26999 5.85001 8.29999 2.82001 12.02 2.82001C15.74 2.82001 18.77 5.85001 18.77 9.57001V12.46C18.77 12.92 18.99 13.73 19.23 14.14L20.37 16.04C20.8 16.76 20.88 17.63 20.59 18.42C20.3 19.21 19.67 19.81 18.88 20.07C16.68 20.81 14.35 21.18 12.02 21.18ZM12.02 4.32001C9.12999 4.32001 6.76999 6.67001 6.76999 9.57001V12.46C6.76999 13.19 6.46999 14.27 6.09999 14.9L4.94999 16.81C4.72999 17.18 4.66999 17.57 4.79999 17.9C4.91999 18.24 5.21999 18.5 5.62999 18.64C9.80999 20.04 14.24 20.04 18.42 18.64C18.78 18.52 19.06 18.25 19.19 17.89C19.32 17.53 19.29 17.14 19.09 16.81L17.94 14.9C17.56 14.25 17.27 13.18 17.27 12.45V9.57001C17.27 6.67001 14.92 4.32001 12.02 4.32001Z" fill="#292D32"/>
<path d="M13.88 4.59002C13.81 4.59002 13.74 4.58002 13.67 4.56002C13.38 4.48002 13.1 4.42002 12.83 4.38002C11.98 4.27002 11.16 4.33002 10.39 4.56002C10.11 4.65002 9.80999 4.56002 9.61999 4.35002C9.42999 4.14002 9.36999 3.84002 9.47999 3.57002C9.88999 2.52002 10.89 1.83002 12.03 1.83002C13.17 1.83002 14.17 2.51002 14.58 3.57002C14.68 3.84002 14.63 4.14002 14.44 4.35002C14.29 4.51002 14.08 4.59002 13.88 4.59002Z" fill="#292D32"/>
<path d="M12.02 23.46C11.03 23.46 10.07 23.06 9.37002 22.36C8.67002 21.66 8.27002 20.7 8.27002 19.71H9.77002C9.77002 20.3 10.01 20.88 10.43 21.3C10.85 21.72 11.43 21.96 12.02 21.96C13.26 21.96 14.27 20.95 14.27 19.71H15.77C15.77 21.78 14.09 23.46 12.02 23.46Z" fill="#292D32"/>
</svg>
