<svg width="104" height="104" viewBox="0 0 104 104" fill="none" xmlns="http://www.w3.org/2000/svg">
<path d="M51.56 21C62.7455 21 71.8132 30.0677 71.8132 41.2533C71.8132 52.4388 62.7455 61.5065 51.56 61.5065C40.3743 61.5065 31.3067 52.4388 31.3067 41.2533C31.3203 30.0732 40.3799 21.0137 51.5586 21H51.56ZM51.56 55.4877C59.4214 55.4877 65.7944 49.1147 65.7944 41.2533C65.7944 33.3919 59.4214 27.0189 51.56 27.0189C43.6985 27.0189 37.3255 33.3918 37.3255 41.2533C37.3341 49.1113 43.7019 55.4791 51.5592 55.4877H51.5599L51.56 55.4877ZM80.1974 90.6918L79.084 84.5165C76.6151 71.3782 65.2335 61.57 51.5603 61.5668H51.5584C37.8974 61.5668 26.5225 71.3545 24.0634 84.2999L24.0359 84.4744L22.9255 90.6317L17 89.5542L18.1134 83.385C21.1336 67.4421 34.9555 55.548 51.5555 55.548H51.5603H51.5601C68.1758 55.5522 82.0064 67.4727 84.9706 83.228L85.0035 83.4391L86.12 89.6234L80.1974 90.6918Z" fill="black"/>
<path d="M52.1237 0C80.7744 0.00101322 104 23.2267 104 51.877C104 66.2019 98.1936 79.171 88.806 88.5587C79.3943 98.0939 66.3258 104 51.878 104C23.2265 104 0 80.7739 0 52.123C0 37.6755 5.90618 24.6071 15.4357 15.201L15.4413 15.1955C24.7778 5.80881 37.7027 0 51.9846 0H52.1314H52.1237ZM52.1237 99.0379C78.1703 99.0379 99.2855 77.9234 99.2855 51.877C99.2855 25.8306 78.1705 4.71604 52.1237 4.71604C26.077 4.71604 4.96184 25.8306 4.96184 51.877C4.99123 77.9113 26.0887 99.0083 52.1208 99.0379H52.1237Z" fill="black"/>
</svg>
