<svg width="25" height="24" viewBox="0 0 25 24" fill="none" xmlns="http://www.w3.org/2000/svg">
<path d="M7.86375 0H3.30389C1.7327 0 0.500244 1.26321 0.500244 2.80365V7.33253C0.500244 8.90372 1.76346 10.1362 3.30389 10.1362H7.83278C9.40397 10.1362 10.6364 8.87297 10.6364 7.33253V2.80343C10.6672 1.26299 9.40419 0 7.86375 0Z" fill="url(#paint0_linear_1233_5580)"/>
<path d="M21.728 0H17.1682C15.597 0 14.3645 1.26321 14.3645 2.80365V7.33253C14.3645 8.90372 15.6277 10.1362 17.1682 10.1362H21.697C23.2682 10.1362 24.5007 8.87297 24.5007 7.33253V2.80343C24.5314 1.26299 23.2684 0 21.728 0Z" fill="url(#paint1_linear_1233_5580)"/>
<path d="M7.86375 13.8643H3.30389C1.7327 13.8643 0.500244 15.1275 0.500244 16.6679V21.1968C0.500244 22.768 1.76346 24.0004 3.30389 24.0004H7.83278C9.40397 24.0004 10.6364 22.7372 10.6364 21.1968V16.6677C10.6672 15.1273 9.40419 13.8643 7.86375 13.8643Z" fill="url(#paint2_linear_1233_5580)"/>
<path d="M21.728 13.8643H17.1682C15.597 13.8643 14.3645 15.1275 14.3645 16.6679V21.1968C14.3645 22.768 15.6277 24.0004 17.1682 24.0004H21.697C23.2682 24.0004 24.5007 22.7372 24.5007 21.1968V16.6677C24.5314 15.1273 23.2684 13.8643 21.728 13.8643Z" fill="url(#paint3_linear_1233_5580)"/>
<defs>
<linearGradient id="paint0_linear_1233_5580" x1="0.500244" y1="5.06808" x2="10.637" y2="5.06808" gradientUnits="userSpaceOnUse">
<stop stop-color="#0470E1"/>
<stop offset="1" stop-color="#9521DC"/>
</linearGradient>
<linearGradient id="paint1_linear_1233_5580" x1="14.3645" y1="5.06808" x2="24.5012" y2="5.06808" gradientUnits="userSpaceOnUse">
<stop stop-color="#0470E1"/>
<stop offset="1" stop-color="#9521DC"/>
</linearGradient>
<linearGradient id="paint2_linear_1233_5580" x1="0.500244" y1="18.9323" x2="10.637" y2="18.9323" gradientUnits="userSpaceOnUse">
<stop stop-color="#0470E1"/>
<stop offset="1" stop-color="#9521DC"/>
</linearGradient>
<linearGradient id="paint3_linear_1233_5580" x1="14.3645" y1="18.9323" x2="24.5012" y2="18.9323" gradientUnits="userSpaceOnUse">
<stop stop-color="#0470E1"/>
<stop offset="1" stop-color="#9521DC"/>
</linearGradient>
</defs>
</svg>
