<svg width="24" height="25" viewBox="0 0 24 25" fill="none" xmlns="http://www.w3.org/2000/svg">
<g clip-path="url(#clip0_294_4291)">
<path d="M7 0.5H4C2.93913 0.5 1.92172 0.921427 1.17157 1.67157C0.421427 2.42172 0 3.43913 0 4.5L0 7.5C0 8.56087 0.421427 9.57828 1.17157 10.3284C1.92172 11.0786 2.93913 11.5 4 11.5H7C8.06087 11.5 9.07828 11.0786 9.82843 10.3284C10.5786 9.57828 11 8.56087 11 7.5V4.5C11 3.43913 10.5786 2.42172 9.82843 1.67157C9.07828 0.921427 8.06087 0.5 7 0.5V0.5ZM9 7.5C9 8.03043 8.78929 8.53914 8.41421 8.91421C8.03914 9.28929 7.53043 9.5 7 9.5H4C3.46957 9.5 2.96086 9.28929 2.58579 8.91421C2.21071 8.53914 2 8.03043 2 7.5V4.5C2 3.96957 2.21071 3.46086 2.58579 3.08579C2.96086 2.71071 3.46957 2.5 4 2.5H7C7.53043 2.5 8.03914 2.71071 8.41421 3.08579C8.78929 3.46086 9 3.96957 9 4.5V7.5Z" fill="#374957"/>
<path d="M19.9999 0.5H16.9999C15.939 0.5 14.9216 0.921428 14.1714 1.67157C13.4213 2.42172 12.9999 3.43914 12.9999 4.5V7.5C12.9999 8.56087 13.4213 9.57829 14.1714 10.3284C14.9216 11.0786 15.939 11.5 16.9999 11.5H19.9999C21.0607 11.5 22.0781 11.0786 22.8283 10.3284C23.5784 9.57829 23.9999 8.56087 23.9999 7.5V4.5C23.9999 3.43914 23.5784 2.42172 22.8283 1.67157C22.0781 0.921428 21.0607 0.5 19.9999 0.5V0.5ZM21.9999 7.5C21.9999 8.03044 21.7892 8.53915 21.4141 8.91422C21.039 9.28929 20.5303 9.50001 19.9999 9.50001H16.9999C16.4694 9.50001 15.9607 9.28929 15.5857 8.91422C15.2106 8.53915 14.9999 8.03044 14.9999 7.5V4.5C14.9999 3.96957 15.2106 3.46086 15.5857 3.08579C15.9607 2.71072 16.4694 2.5 16.9999 2.5H19.9999C20.5303 2.5 21.039 2.71072 21.4141 3.08579C21.7892 3.46086 21.9999 3.96957 21.9999 4.5V7.5Z" fill="#374957"/>
<path d="M7 13.5H4C2.93913 13.5 1.92172 13.9214 1.17157 14.6716C0.421427 15.4217 0 16.4391 0 17.5L0 20.5C0 21.5609 0.421427 22.5783 1.17157 23.3284C1.92172 24.0786 2.93913 24.5 4 24.5H7C8.06087 24.5 9.07828 24.0786 9.82843 23.3284C10.5786 22.5783 11 21.5609 11 20.5V17.5C11 16.4391 10.5786 15.4217 9.82843 14.6716C9.07828 13.9214 8.06087 13.5 7 13.5ZM9 20.5C9 21.0304 8.78929 21.5392 8.41421 21.9142C8.03914 22.2893 7.53043 22.5 7 22.5H4C3.46957 22.5 2.96086 22.2893 2.58579 21.9142C2.21071 21.5392 2 21.0304 2 20.5V17.5C2 16.9696 2.21071 16.4609 2.58579 16.0858C2.96086 15.7107 3.46957 15.5 4 15.5H7C7.53043 15.5 8.03914 15.7107 8.41421 16.0858C8.78929 16.4609 9 16.9696 9 17.5V20.5Z" fill="#374957"/>
<path d="M19.9999 13.5H16.9999C15.939 13.5 14.9216 13.9214 14.1714 14.6716C13.4213 15.4217 12.9999 16.4391 12.9999 17.5V20.5C12.9999 21.5609 13.4213 22.5783 14.1714 23.3284C14.9216 24.0786 15.939 24.5 16.9999 24.5H19.9999C21.0607 24.5 22.0781 24.0786 22.8283 23.3284C23.5784 22.5783 23.9999 21.5609 23.9999 20.5V17.5C23.9999 16.4391 23.5784 15.4217 22.8283 14.6716C22.0781 13.9214 21.0607 13.5 19.9999 13.5ZM21.9999 20.5C21.9999 21.0304 21.7892 21.5392 21.4141 21.9142C21.039 22.2893 20.5303 22.5 19.9999 22.5H16.9999C16.4694 22.5 15.9607 22.2893 15.5857 21.9142C15.2106 21.5392 14.9999 21.0304 14.9999 20.5V17.5C14.9999 16.9696 15.2106 16.4609 15.5857 16.0858C15.9607 15.7107 16.4694 15.5 16.9999 15.5H19.9999C20.5303 15.5 21.039 15.7107 21.4141 16.0858C21.7892 16.4609 21.9999 16.9696 21.9999 17.5V20.5Z" fill="#374957"/>
</g>
<defs>
<clipPath id="clip0_294_4291">
<rect width="24" height="24" fill="white" transform="translate(0 0.5)"/>
</clipPath>
</defs>
</svg>
